%TF.GenerationSoftware,KiCad,Pcbnew,9.0.1*%
%TF.CreationDate,2026-01-18T22:14:00-05:00*%
%TF.ProjectId,Kicad,4b696361-642e-46b6-9963-61645f706362,rev?*%
%TF.SameCoordinates,Original*%
%TF.FileFunction,Copper,L1,Top*%
%TF.FilePolarity,Positive*%
%FSLAX46Y46*%
G04 Gerber Fmt 4.6, Leading zero omitted, Abs format (unit mm)*
G04 Created by KiCad (PCBNEW 9.0.1) date 2026-01-18 22:14:00*
%MOMM*%
%LPD*%
G01*
G04 APERTURE LIST*
G04 Aperture macros list*
%AMRoundRect*
0 Rectangle with rounded corners*
0 $1 Rounding radius*
0 $2 $3 $4 $5 $6 $7 $8 $9 X,Y pos of 4 corners*
0 Add a 4 corners polygon primitive as box body*
4,1,4,$2,$3,$4,$5,$6,$7,$8,$9,$2,$3,0*
0 Add four circle primitives for the rounded corners*
1,1,$1+$1,$2,$3*
1,1,$1+$1,$4,$5*
1,1,$1+$1,$6,$7*
1,1,$1+$1,$8,$9*
0 Add four rect primitives between the rounded corners*
20,1,$1+$1,$2,$3,$4,$5,0*
20,1,$1+$1,$4,$5,$6,$7,0*
20,1,$1+$1,$6,$7,$8,$9,0*
20,1,$1+$1,$8,$9,$2,$3,0*%
G04 Aperture macros list end*
%TA.AperFunction,SMDPad,CuDef*%
%ADD10RoundRect,0.250000X-0.450000X0.350000X-0.450000X-0.350000X0.450000X-0.350000X0.450000X0.350000X0*%
%TD*%
%TA.AperFunction,SMDPad,CuDef*%
%ADD11RoundRect,0.250000X0.475000X-0.337500X0.475000X0.337500X-0.475000X0.337500X-0.475000X-0.337500X0*%
%TD*%
%TA.AperFunction,SMDPad,CuDef*%
%ADD12RoundRect,0.250000X-0.337500X-0.475000X0.337500X-0.475000X0.337500X0.475000X-0.337500X0.475000X0*%
%TD*%
%TA.AperFunction,ComponentPad*%
%ADD13RoundRect,0.250200X-0.649800X0.649800X-0.649800X-0.649800X0.649800X-0.649800X0.649800X0.649800X0*%
%TD*%
%TA.AperFunction,ComponentPad*%
%ADD14C,1.800000*%
%TD*%
%TA.AperFunction,ComponentPad*%
%ADD15O,1.900000X1.524000*%
%TD*%
%TA.AperFunction,ComponentPad*%
%ADD16R,1.600000X1.600000*%
%TD*%
%TA.AperFunction,ComponentPad*%
%ADD17O,1.600000X1.600000*%
%TD*%
%TA.AperFunction,ComponentPad*%
%ADD18C,1.600000*%
%TD*%
%TA.AperFunction,ComponentPad*%
%ADD19R,1.700000X1.700000*%
%TD*%
%TA.AperFunction,ComponentPad*%
%ADD20C,1.700000*%
%TD*%
%TA.AperFunction,ComponentPad*%
%ADD21RoundRect,0.250001X0.799999X-0.799999X0.799999X0.799999X-0.799999X0.799999X-0.799999X-0.799999X0*%
%TD*%
%TA.AperFunction,ComponentPad*%
%ADD22C,2.100000*%
%TD*%
%TA.AperFunction,SMDPad,CuDef*%
%ADD23RoundRect,0.100000X0.637500X0.100000X-0.637500X0.100000X-0.637500X-0.100000X0.637500X-0.100000X0*%
%TD*%
%TA.AperFunction,ComponentPad*%
%ADD24RoundRect,0.250000X1.000000X-1.000000X1.000000X1.000000X-1.000000X1.000000X-1.000000X-1.000000X0*%
%TD*%
%TA.AperFunction,ComponentPad*%
%ADD25C,2.500000*%
%TD*%
%TA.AperFunction,ViaPad*%
%ADD26C,0.600000*%
%TD*%
%TA.AperFunction,Conductor*%
%ADD27C,0.800000*%
%TD*%
%TA.AperFunction,Conductor*%
%ADD28C,0.400000*%
%TD*%
%TA.AperFunction,Conductor*%
%ADD29C,0.500000*%
%TD*%
%TA.AperFunction,Conductor*%
%ADD30C,0.300000*%
%TD*%
G04 APERTURE END LIST*
D10*
%TO.P,R1,1*%
%TO.N,/3v3*%
X84836000Y-103013000D03*
%TO.P,R1,2*%
%TO.N,/EN*%
X84836000Y-105013000D03*
%TD*%
D11*
%TO.P,C7,1*%
%TO.N,GND*%
X84500000Y-99817500D03*
%TO.P,C7,2*%
%TO.N,Net-(U2-VINT)*%
X84500000Y-97742500D03*
%TD*%
D12*
%TO.P,C6,1*%
%TO.N,GND*%
X88462500Y-100600000D03*
%TO.P,C6,2*%
%TO.N,/3v3*%
X90537500Y-100600000D03*
%TD*%
%TO.P,C5,1*%
%TO.N,GND*%
X88462500Y-98500000D03*
%TO.P,C5,2*%
%TO.N,/3v3*%
X90537500Y-98500000D03*
%TD*%
D11*
%TO.P,C3,1*%
%TO.N,/EN*%
X82550000Y-105050500D03*
%TO.P,C3,2*%
%TO.N,GND*%
X82550000Y-102975500D03*
%TD*%
%TO.P,C2,1*%
%TO.N,GND*%
X51435000Y-71037500D03*
%TO.P,C2,2*%
%TO.N,/3v3*%
X51435000Y-68962500D03*
%TD*%
%TO.P,C1,1*%
%TO.N,GND*%
X48500000Y-71037500D03*
%TO.P,C1,2*%
%TO.N,/3v3*%
X48500000Y-68962500D03*
%TD*%
D13*
%TO.P,U5,1,OUT*%
%TO.N,/IO5*%
X48000000Y-87000000D03*
D14*
%TO.P,U5,2,GND*%
%TO.N,GND*%
X48000000Y-89540000D03*
%TO.P,U5,3,Vs*%
%TO.N,/3v3*%
X48000000Y-92080000D03*
%TD*%
D15*
%TO.P,U3,1,VIN*%
%TO.N,unconnected-(U3-VIN-Pad1)*%
X80000000Y-69212277D03*
%TO.P,U3,2,GND*%
%TO.N,GND*%
X80000000Y-71752277D03*
%TO.P,U3,3,GPIO13*%
%TO.N,/IO18*%
X80000000Y-74292277D03*
%TO.P,U3,4,GPIO12*%
%TO.N,/IO19*%
X80000000Y-76832277D03*
%TO.P,U3,5,GPIO14*%
%TO.N,unconnected-(U3-GPIO14-Pad5)*%
X80000000Y-79372277D03*
%TO.P,U3,6,GPIO27*%
%TO.N,/IO23*%
X80000000Y-81912277D03*
%TO.P,U3,7,GPIO26*%
%TO.N,/IO25*%
X80000000Y-84452277D03*
%TO.P,U3,8,GPIO25*%
%TO.N,/IO26*%
X80000000Y-86992277D03*
%TO.P,U3,9,GPIO33*%
%TO.N,/IO27*%
X80000000Y-89532277D03*
%TO.P,U3,10,GPIO32*%
%TO.N,/IO28*%
X80000000Y-92072277D03*
%TO.P,U3,11,GPIO35*%
%TO.N,unconnected-(U3-GPIO35-Pad11)*%
X80000000Y-94612277D03*
%TO.P,U3,12,GPIO34*%
%TO.N,unconnected-(U3-GPIO34-Pad12)*%
X80000000Y-97152277D03*
%TO.P,U3,13,GPIO39*%
%TO.N,unconnected-(U3-GPIO39-Pad13)*%
X80000000Y-99692277D03*
%TO.P,U3,14,GPIO36*%
%TO.N,unconnected-(U3-GPIO36-Pad14)*%
X80000000Y-102232277D03*
%TO.P,U3,15,EN*%
%TO.N,/EN*%
X80000000Y-104772277D03*
%TO.P,U3,16,3.3v*%
%TO.N,/3v3*%
X54600000Y-69212277D03*
%TO.P,U3,17,GND*%
%TO.N,GND*%
X54600000Y-71752277D03*
%TO.P,U3,18,GPIO15*%
%TO.N,unconnected-(U3-GPIO15-Pad18)*%
X54600000Y-74292277D03*
%TO.P,U3,19,GPIO2*%
%TO.N,unconnected-(U3-GPIO2-Pad19)*%
X54600000Y-76832277D03*
%TO.P,U3,20,GPIO4*%
%TO.N,unconnected-(U3-GPIO4-Pad20)*%
X54600000Y-79372277D03*
%TO.P,U3,21,GPIO16*%
%TO.N,unconnected-(U3-GPIO16-Pad21)*%
X54600000Y-81912277D03*
%TO.P,U3,22,GPIO17*%
%TO.N,unconnected-(U3-GPIO17-Pad22)*%
X54600000Y-84452277D03*
%TO.P,U3,23,GPIO5*%
%TO.N,/IO5*%
X54600000Y-86992277D03*
%TO.P,U3,24,GPIO18*%
%TO.N,unconnected-(U3-GPIO18-Pad24)*%
X54600000Y-89532277D03*
%TO.P,U3,25,GPIO19*%
%TO.N,unconnected-(U3-GPIO19-Pad25)*%
X54600000Y-92072277D03*
%TO.P,U3,26,GPIO21*%
%TO.N,unconnected-(U3-GPIO21-Pad26)*%
X54600000Y-94612277D03*
%TO.P,U3,27,GPIO3*%
%TO.N,unconnected-(U3-GPIO3-Pad27)*%
X54600000Y-97152277D03*
%TO.P,U3,28,GPIO1*%
%TO.N,unconnected-(U3-GPIO1-Pad28)*%
X54600000Y-99692277D03*
%TO.P,U3,29,GPIO22*%
%TO.N,/IO21*%
X54600000Y-102232277D03*
%TO.P,U3,30,GPIO23*%
%TO.N,/IO22*%
X54600000Y-104772277D03*
%TD*%
D16*
%TO.P,A1,1,GND*%
%TO.N,GND*%
X97200000Y-88700000D03*
D17*
%TO.P,A1,2,VDD*%
%TO.N,/3v3*%
X97200000Y-86160000D03*
%TO.P,A1,3,1B*%
%TO.N,/NEMA_Output_1a*%
X97200000Y-83620000D03*
%TO.P,A1,4,1A*%
%TO.N,/NEMA_Output_1b*%
X97200000Y-81080000D03*
%TO.P,A1,5,2A*%
%TO.N,/NEMA_Output_2a*%
X97200000Y-78540000D03*
%TO.P,A1,6,2B*%
%TO.N,/NEMA_Output_2b*%
X97200000Y-76000000D03*
%TO.P,A1,7,GND*%
%TO.N,GND*%
X97200000Y-73460000D03*
%TO.P,A1,8,VMOT*%
%TO.N,/12V*%
X97200000Y-70920000D03*
%TO.P,A1,9,~{ENABLE}*%
%TO.N,/IO23*%
X84500000Y-70920000D03*
%TO.P,A1,10,MS1*%
%TO.N,unconnected-(A1-MS1-Pad10)*%
X84500000Y-73460000D03*
%TO.P,A1,11,MS2*%
%TO.N,unconnected-(A1-MS2-Pad11)*%
X84500000Y-76000000D03*
%TO.P,A1,12,MS3*%
%TO.N,unconnected-(A1-MS3-Pad12)*%
X84500000Y-78540000D03*
%TO.P,A1,13,~{RESET}*%
%TO.N,Net-(A1-~{RESET})*%
X84500000Y-81080000D03*
%TO.P,A1,14,~{SLEEP}*%
X84500000Y-83620000D03*
%TO.P,A1,15,STEP*%
%TO.N,/IO18*%
X84500000Y-86160000D03*
%TO.P,A1,16,DIR*%
%TO.N,/IO19*%
X84500000Y-88700000D03*
%TD*%
D18*
%TO.P,C4,1*%
%TO.N,GND*%
X91500000Y-66500000D03*
%TO.P,C4,2*%
%TO.N,/12V*%
X91500000Y-63000000D03*
%TD*%
D19*
%TO.P,J4,1,Pin_1*%
%TO.N,/3v3*%
X48000000Y-96920000D03*
D20*
%TO.P,J4,2,Pin_2*%
%TO.N,GND*%
X48000000Y-99460000D03*
%TO.P,J4,3,Pin_3*%
%TO.N,/IO21*%
X48000000Y-102000000D03*
%TO.P,J4,4,Pin_4*%
%TO.N,/IO22*%
X48000000Y-104540000D03*
%TD*%
D21*
%TO.P,J2,1,Pin_1*%
%TO.N,/DC_Output_2a*%
X106500000Y-99000000D03*
D22*
%TO.P,J2,2,Pin_2*%
%TO.N,/DC_Output_2b*%
X106500000Y-94000000D03*
%TD*%
D23*
%TO.P,U2,1,~{SLEEP}*%
%TO.N,/3v3*%
X90362500Y-96275000D03*
%TO.P,U2,2,AOUT1*%
%TO.N,/DC_Output_1a*%
X90362500Y-95625000D03*
%TO.P,U2,3,AISEN*%
%TO.N,GND*%
X90362500Y-94975000D03*
%TO.P,U2,4,AOUT2*%
%TO.N,/DC_Output_1b*%
X90362500Y-94325000D03*
%TO.P,U2,5,BOUT2*%
%TO.N,/DC_Output_2a*%
X90362500Y-93675000D03*
%TO.P,U2,6,BISEN*%
%TO.N,GND*%
X90362500Y-93025000D03*
%TO.P,U2,7,BOUT1*%
%TO.N,/DC_Output_2b*%
X90362500Y-92375000D03*
%TO.P,U2,8,~{FAULT}*%
%TO.N,unconnected-(U2-~{FAULT}-Pad8)*%
X90362500Y-91725000D03*
%TO.P,U2,9,BIN1*%
%TO.N,/IO25*%
X84637500Y-91725000D03*
%TO.P,U2,10,BIN2*%
%TO.N,/IO26*%
X84637500Y-92375000D03*
%TO.P,U2,11,VCP*%
%TO.N,/3v3*%
X84637500Y-93025000D03*
%TO.P,U2,12,VM*%
X84637500Y-93675000D03*
%TO.P,U2,13,GND*%
%TO.N,GND*%
X84637500Y-94325000D03*
%TO.P,U2,14,VINT*%
%TO.N,Net-(U2-VINT)*%
X84637500Y-94975000D03*
%TO.P,U2,15,AIN2*%
%TO.N,/IO27*%
X84637500Y-95625000D03*
%TO.P,U2,16,AIN1*%
%TO.N,/IO28*%
X84637500Y-96275000D03*
%TD*%
D21*
%TO.P,J1,1,Pin_1*%
%TO.N,/DC_Output_1a*%
X106367500Y-110500000D03*
D22*
%TO.P,J1,2,Pin_2*%
%TO.N,/DC_Output_1b*%
X106367500Y-105500000D03*
%TD*%
D24*
%TO.P,J3,1,Pin_1*%
%TO.N,/NEMA_Output_1a*%
X109000000Y-86000000D03*
D25*
%TO.P,J3,2,Pin_2*%
%TO.N,/NEMA_Output_1b*%
X109000000Y-81000000D03*
%TO.P,J3,3,Pin_3*%
%TO.N,/NEMA_Output_2a*%
X109000000Y-76000000D03*
%TO.P,J3,4,Pin_4*%
%TO.N,/NEMA_Output_2b*%
X109000000Y-71000000D03*
%TD*%
D19*
%TO.P,J5,1,Pin_1*%
%TO.N,/3v3*%
X45720000Y-69215000D03*
D20*
%TO.P,J5,2,Pin_2*%
%TO.N,GND*%
X45720000Y-66675000D03*
%TO.P,J5,3,Pin_3*%
X45720000Y-64135000D03*
%TO.P,J5,4,Pin_4*%
%TO.N,/12V*%
X45720000Y-61595000D03*
%TD*%
D26*
%TO.N,GND*%
X86487000Y-92837000D03*
X86487000Y-96139000D03*
X88500000Y-93500000D03*
X87249000Y-96139000D03*
X97500000Y-90500000D03*
X84455000Y-101346000D03*
X87249000Y-95377000D03*
X86487000Y-95377000D03*
X88011000Y-96139000D03*
X86500000Y-99500000D03*
X86106000Y-92075000D03*
X86995000Y-92075000D03*
X92500000Y-95025000D03*
X86614000Y-94615000D03*
%TD*%
D27*
%TO.N,/EN*%
X84669000Y-105000000D02*
X80230000Y-105000000D01*
X80230000Y-105000000D02*
X80010000Y-104780000D01*
X84836000Y-104833000D02*
X84669000Y-105000000D01*
%TO.N,GND*%
X53850000Y-71000000D02*
X54610000Y-71760000D01*
X48720000Y-71000000D02*
X53850000Y-71000000D01*
X48500000Y-70780000D02*
X48720000Y-71000000D01*
D28*
X86200000Y-99800000D02*
X86500000Y-99500000D01*
X84740000Y-99800000D02*
X86200000Y-99800000D01*
X84500000Y-99560000D02*
X84740000Y-99800000D01*
%TO.N,/3v3*%
X88007000Y-103193000D02*
X84836000Y-103193000D01*
X90600000Y-98820000D02*
X90600000Y-100600000D01*
X89144354Y-97364354D02*
X90600000Y-98820000D01*
X89144354Y-95855646D02*
X89144354Y-97364354D01*
X90600000Y-100600000D02*
X88007000Y-103193000D01*
D27*
%TO.N,/NEMA_Output_1b*%
X97200000Y-81080000D02*
X108920000Y-81080000D01*
X108920000Y-81080000D02*
X109000000Y-81000000D01*
D28*
%TO.N,GND*%
X92450000Y-94975000D02*
X92500000Y-95025000D01*
X82550000Y-103233000D02*
X82568000Y-103233000D01*
X97200000Y-88700000D02*
X97200000Y-90200000D01*
X82550000Y-103233000D02*
X82767000Y-103233000D01*
X97200000Y-90200000D02*
X97500000Y-90500000D01*
X90362500Y-94975000D02*
X92450000Y-94975000D01*
D29*
X86324000Y-94325000D02*
X86614000Y-94615000D01*
D28*
X88720000Y-98500000D02*
X87500000Y-98500000D01*
X90362500Y-93025000D02*
X88975000Y-93025000D01*
X87500000Y-98500000D02*
X86500000Y-99500000D01*
X82568000Y-103233000D02*
X84455000Y-101346000D01*
X88720000Y-100500000D02*
X87500000Y-100500000D01*
D29*
X84637500Y-94325000D02*
X86324000Y-94325000D01*
D28*
X87500000Y-100500000D02*
X86500000Y-99500000D01*
X88975000Y-93025000D02*
X88500000Y-93500000D01*
D27*
%TO.N,/3v3*%
X45720000Y-89800000D02*
X48000000Y-92080000D01*
D30*
X83610476Y-92926000D02*
X84637500Y-92926000D01*
D28*
X89144354Y-95855646D02*
X89563708Y-96275000D01*
D30*
X81400000Y-89600000D02*
X82147000Y-90347000D01*
X82147000Y-90347000D02*
X82147000Y-90863674D01*
D27*
X45720000Y-69215000D02*
X45720000Y-89800000D01*
D28*
X97200000Y-86160000D02*
X94478708Y-86160000D01*
X86963708Y-93675000D02*
X89144354Y-95855646D01*
D30*
X81400000Y-89170257D02*
X81400000Y-89600000D01*
D28*
X94478708Y-86160000D02*
X86963708Y-93675000D01*
X84637500Y-93675000D02*
X86963708Y-93675000D01*
D30*
X48000000Y-92080000D02*
X51680000Y-88400000D01*
X82948000Y-92263524D02*
X83610476Y-92926000D01*
D28*
X84637500Y-93025000D02*
X84637500Y-93675000D01*
D30*
X51680000Y-88400000D02*
X80629743Y-88400000D01*
X82147000Y-90863674D02*
X82948000Y-91664674D01*
X84637500Y-92926000D02*
X84637500Y-93025000D01*
D28*
X89563708Y-96275000D02*
X90362500Y-96275000D01*
D30*
X80629743Y-88400000D02*
X81400000Y-89170257D01*
X82948000Y-91664674D02*
X82948000Y-92263524D01*
D27*
X48000000Y-92080000D02*
X48000000Y-96920000D01*
D28*
%TO.N,/IO18*%
X84500000Y-86160000D02*
X81962000Y-83622000D01*
X81962000Y-76252000D02*
X80010000Y-74300000D01*
X81962000Y-83622000D02*
X81962000Y-76252000D01*
%TO.N,Net-(A1-~{RESET})*%
X84500000Y-81080000D02*
X84500000Y-83620000D01*
%TO.N,/IO19*%
X81361000Y-85561000D02*
X81361000Y-78191000D01*
X84500000Y-88700000D02*
X81361000Y-85561000D01*
X81361000Y-78191000D02*
X80010000Y-76840000D01*
D27*
%TO.N,/NEMA_Output_2b*%
X97200000Y-76000000D02*
X104000000Y-76000000D01*
X104000000Y-76000000D02*
X109000000Y-71000000D01*
D28*
%TO.N,/IO23*%
X79497018Y-72962529D02*
X82457471Y-72962529D01*
X78649000Y-80561277D02*
X78649000Y-73810547D01*
X78649000Y-73810547D02*
X79497018Y-72962529D01*
X80000000Y-81912277D02*
X78649000Y-80561277D01*
X82457471Y-72962529D02*
X84500000Y-70920000D01*
D27*
%TO.N,/NEMA_Output_1a*%
X106620000Y-83620000D02*
X109000000Y-86000000D01*
X97200000Y-83620000D02*
X106620000Y-83620000D01*
%TO.N,/NEMA_Output_2a*%
X106460000Y-78540000D02*
X97200000Y-78540000D01*
X109000000Y-76000000D02*
X106460000Y-78540000D01*
%TO.N,/12V*%
X89245000Y-60745000D02*
X91500000Y-63000000D01*
X45720000Y-61595000D02*
X46570000Y-60745000D01*
X97200000Y-68700000D02*
X97200000Y-70920000D01*
X91500000Y-63000000D02*
X97200000Y-68700000D01*
X46570000Y-60745000D02*
X89245000Y-60745000D01*
D28*
%TO.N,Net-(U2-VINT)*%
X85776000Y-95314708D02*
X85776000Y-96724000D01*
X85436292Y-94975000D02*
X85776000Y-95314708D01*
X84637500Y-94975000D02*
X85436292Y-94975000D01*
X85776000Y-96724000D02*
X84500000Y-98000000D01*
%TO.N,/DC_Output_1b*%
X95192500Y-94325000D02*
X106367500Y-105500000D01*
X90362500Y-94325000D02*
X95192500Y-94325000D01*
%TO.N,/DC_Output_1a*%
X91492500Y-95625000D02*
X106367500Y-110500000D01*
X90362500Y-95625000D02*
X91492500Y-95625000D01*
%TO.N,/DC_Output_2a*%
X101175000Y-93675000D02*
X106500000Y-99000000D01*
X90362500Y-93675000D02*
X101175000Y-93675000D01*
%TO.N,/DC_Output_2b*%
X104875000Y-92375000D02*
X106500000Y-94000000D01*
X90362500Y-92375000D02*
X104875000Y-92375000D01*
D27*
%TO.N,/IO22*%
X54370000Y-104540000D02*
X54610000Y-104780000D01*
X48000000Y-104540000D02*
X54370000Y-104540000D01*
%TO.N,/IO21*%
X48000000Y-102000000D02*
X54370000Y-102000000D01*
X54370000Y-102000000D02*
X54610000Y-102240000D01*
D28*
%TO.N,/IO25*%
X83299000Y-90386500D02*
X84637500Y-91725000D01*
X80000000Y-84452277D02*
X80000000Y-85159547D01*
X83299000Y-88458547D02*
X83299000Y-90386500D01*
X80000000Y-85159547D02*
X83299000Y-88458547D01*
%TO.N,/IO28*%
X80000000Y-92072277D02*
X80000000Y-92636234D01*
X83638766Y-96275000D02*
X84637500Y-96275000D01*
X80000000Y-92636234D02*
X83638766Y-96275000D01*
%TO.N,/IO27*%
X83499000Y-93699000D02*
X83499000Y-95285292D01*
X80000000Y-89532277D02*
X80000000Y-90200000D01*
X83499000Y-95285292D02*
X83838708Y-95625000D01*
X83838708Y-95625000D02*
X84637500Y-95625000D01*
X80000000Y-90200000D02*
X83499000Y-93699000D01*
%TO.N,/IO26*%
X82698000Y-90635442D02*
X83499000Y-91436442D01*
X82698000Y-88707489D02*
X82698000Y-90635442D01*
X80982788Y-86992277D02*
X82698000Y-88707489D01*
X80000000Y-86992277D02*
X80982788Y-86992277D01*
X83499000Y-92035292D02*
X83838708Y-92375000D01*
X83838708Y-92375000D02*
X84637500Y-92375000D01*
X83499000Y-91436442D02*
X83499000Y-92035292D01*
D27*
%TO.N,/IO5*%
X48000000Y-87000000D02*
X54610000Y-87000000D01*
%TO.N,/3v3*%
X45720000Y-69215000D02*
X45972500Y-68962500D01*
X45972500Y-68962500D02*
X54352500Y-68962500D01*
X54352500Y-68962500D02*
X54610000Y-69220000D01*
%TD*%
M02*
