%TF.GenerationSoftware,KiCad,Pcbnew,9.0.1*%
%TF.CreationDate,2026-01-18T13:59:08-05:00*%
%TF.ProjectId,Kicad,4b696361-642e-46b6-9963-61645f706362,rev?*%
%TF.SameCoordinates,Original*%
%TF.FileFunction,Legend,Top*%
%TF.FilePolarity,Positive*%
%FSLAX46Y46*%
G04 Gerber Fmt 4.6, Leading zero omitted, Abs format (unit mm)*
G04 Created by KiCad (PCBNEW 9.0.1) date 2026-01-18 13:59:08*
%MOMM*%
%LPD*%
G01*
G04 APERTURE LIST*
G04 Aperture macros list*
%AMRoundRect*
0 Rectangle with rounded corners*
0 $1 Rounding radius*
0 $2 $3 $4 $5 $6 $7 $8 $9 X,Y pos of 4 corners*
0 Add a 4 corners polygon primitive as box body*
4,1,4,$2,$3,$4,$5,$6,$7,$8,$9,$2,$3,0*
0 Add four circle primitives for the rounded corners*
1,1,$1+$1,$2,$3*
1,1,$1+$1,$4,$5*
1,1,$1+$1,$6,$7*
1,1,$1+$1,$8,$9*
0 Add four rect primitives between the rounded corners*
20,1,$1+$1,$2,$3,$4,$5,0*
20,1,$1+$1,$4,$5,$6,$7,0*
20,1,$1+$1,$6,$7,$8,$9,0*
20,1,$1+$1,$8,$9,$2,$3,0*%
G04 Aperture macros list end*
%ADD10C,0.150000*%
%ADD11C,0.100000*%
%ADD12C,0.000000*%
%ADD13C,0.120000*%
%ADD14C,0.200000*%
%ADD15R,1.600000X1.600000*%
%ADD16O,1.600000X1.600000*%
%ADD17RoundRect,0.250200X-0.649800X0.649800X-0.649800X-0.649800X0.649800X-0.649800X0.649800X0.649800X0*%
%ADD18C,1.800000*%
%ADD19RoundRect,0.244000X0.269000X-0.244000X0.269000X0.244000X-0.269000X0.244000X-0.269000X-0.244000X0*%
%ADD20RoundRect,0.219000X-0.294000X0.219000X-0.294000X-0.219000X0.294000X-0.219000X0.294000X0.219000X0*%
%ADD21RoundRect,0.244000X-0.244000X-0.269000X0.244000X-0.269000X0.244000X0.269000X-0.244000X0.269000X0*%
%ADD22C,1.600000*%
%ADD23R,1.700000X1.700000*%
%ADD24C,1.700000*%
%ADD25RoundRect,0.250001X0.799999X-0.799999X0.799999X0.799999X-0.799999X0.799999X-0.799999X-0.799999X0*%
%ADD26C,2.100000*%
%ADD27RoundRect,0.100000X0.637500X0.100000X-0.637500X0.100000X-0.637500X-0.100000X0.637500X-0.100000X0*%
%ADD28RoundRect,0.250000X1.000000X-1.000000X1.000000X1.000000X-1.000000X1.000000X-1.000000X-1.000000X0*%
%ADD29C,2.500000*%
%ADD30O,1.900000X1.524000*%
G04 APERTURE END LIST*
D10*
X91741714Y-91482104D02*
X92217904Y-91482104D01*
X91646476Y-91767819D02*
X91979809Y-90767819D01*
X91979809Y-90767819D02*
X92313142Y-91767819D01*
X93170285Y-91767819D02*
X92598857Y-91767819D01*
X92884571Y-91767819D02*
X92884571Y-90767819D01*
X92884571Y-90767819D02*
X92789333Y-90910676D01*
X92789333Y-90910676D02*
X92694095Y-91005914D01*
X92694095Y-91005914D02*
X92598857Y-91053533D01*
X49854819Y-90261904D02*
X50664342Y-90261904D01*
X50664342Y-90261904D02*
X50759580Y-90214285D01*
X50759580Y-90214285D02*
X50807200Y-90166666D01*
X50807200Y-90166666D02*
X50854819Y-90071428D01*
X50854819Y-90071428D02*
X50854819Y-89880952D01*
X50854819Y-89880952D02*
X50807200Y-89785714D01*
X50807200Y-89785714D02*
X50759580Y-89738095D01*
X50759580Y-89738095D02*
X50664342Y-89690476D01*
X50664342Y-89690476D02*
X49854819Y-89690476D01*
X49854819Y-88738095D02*
X49854819Y-89214285D01*
X49854819Y-89214285D02*
X50331009Y-89261904D01*
X50331009Y-89261904D02*
X50283390Y-89214285D01*
X50283390Y-89214285D02*
X50235771Y-89119047D01*
X50235771Y-89119047D02*
X50235771Y-88880952D01*
X50235771Y-88880952D02*
X50283390Y-88785714D01*
X50283390Y-88785714D02*
X50331009Y-88738095D01*
X50331009Y-88738095D02*
X50426247Y-88690476D01*
X50426247Y-88690476D02*
X50664342Y-88690476D01*
X50664342Y-88690476D02*
X50759580Y-88738095D01*
X50759580Y-88738095D02*
X50807200Y-88785714D01*
X50807200Y-88785714D02*
X50854819Y-88880952D01*
X50854819Y-88880952D02*
X50854819Y-89119047D01*
X50854819Y-89119047D02*
X50807200Y-89214285D01*
X50807200Y-89214285D02*
X50759580Y-89261904D01*
X86609580Y-64916666D02*
X86657200Y-64964285D01*
X86657200Y-64964285D02*
X86704819Y-65107142D01*
X86704819Y-65107142D02*
X86704819Y-65202380D01*
X86704819Y-65202380D02*
X86657200Y-65345237D01*
X86657200Y-65345237D02*
X86561961Y-65440475D01*
X86561961Y-65440475D02*
X86466723Y-65488094D01*
X86466723Y-65488094D02*
X86276247Y-65535713D01*
X86276247Y-65535713D02*
X86133390Y-65535713D01*
X86133390Y-65535713D02*
X85942914Y-65488094D01*
X85942914Y-65488094D02*
X85847676Y-65440475D01*
X85847676Y-65440475D02*
X85752438Y-65345237D01*
X85752438Y-65345237D02*
X85704819Y-65202380D01*
X85704819Y-65202380D02*
X85704819Y-65107142D01*
X85704819Y-65107142D02*
X85752438Y-64964285D01*
X85752438Y-64964285D02*
X85800057Y-64916666D01*
X86038152Y-64059523D02*
X86704819Y-64059523D01*
X85657200Y-64297618D02*
X86371485Y-64535713D01*
X86371485Y-64535713D02*
X86371485Y-63916666D01*
X47666666Y-93994819D02*
X47666666Y-94709104D01*
X47666666Y-94709104D02*
X47619047Y-94851961D01*
X47619047Y-94851961D02*
X47523809Y-94947200D01*
X47523809Y-94947200D02*
X47380952Y-94994819D01*
X47380952Y-94994819D02*
X47285714Y-94994819D01*
X48571428Y-94328152D02*
X48571428Y-94994819D01*
X48333333Y-93947200D02*
X48095238Y-94661485D01*
X48095238Y-94661485D02*
X48714285Y-94661485D01*
X100784819Y-96833333D02*
X101499104Y-96833333D01*
X101499104Y-96833333D02*
X101641961Y-96880952D01*
X101641961Y-96880952D02*
X101737200Y-96976190D01*
X101737200Y-96976190D02*
X101784819Y-97119047D01*
X101784819Y-97119047D02*
X101784819Y-97214285D01*
X100880057Y-96404761D02*
X100832438Y-96357142D01*
X100832438Y-96357142D02*
X100784819Y-96261904D01*
X100784819Y-96261904D02*
X100784819Y-96023809D01*
X100784819Y-96023809D02*
X100832438Y-95928571D01*
X100832438Y-95928571D02*
X100880057Y-95880952D01*
X100880057Y-95880952D02*
X100975295Y-95833333D01*
X100975295Y-95833333D02*
X101070533Y-95833333D01*
X101070533Y-95833333D02*
X101213390Y-95880952D01*
X101213390Y-95880952D02*
X101784819Y-96452380D01*
X101784819Y-96452380D02*
X101784819Y-95833333D01*
X86738095Y-96904819D02*
X86738095Y-97714342D01*
X86738095Y-97714342D02*
X86785714Y-97809580D01*
X86785714Y-97809580D02*
X86833333Y-97857200D01*
X86833333Y-97857200D02*
X86928571Y-97904819D01*
X86928571Y-97904819D02*
X87119047Y-97904819D01*
X87119047Y-97904819D02*
X87214285Y-97857200D01*
X87214285Y-97857200D02*
X87261904Y-97809580D01*
X87261904Y-97809580D02*
X87309523Y-97714342D01*
X87309523Y-97714342D02*
X87309523Y-96904819D01*
X87738095Y-97000057D02*
X87785714Y-96952438D01*
X87785714Y-96952438D02*
X87880952Y-96904819D01*
X87880952Y-96904819D02*
X88119047Y-96904819D01*
X88119047Y-96904819D02*
X88214285Y-96952438D01*
X88214285Y-96952438D02*
X88261904Y-97000057D01*
X88261904Y-97000057D02*
X88309523Y-97095295D01*
X88309523Y-97095295D02*
X88309523Y-97190533D01*
X88309523Y-97190533D02*
X88261904Y-97333390D01*
X88261904Y-97333390D02*
X87690476Y-97904819D01*
X87690476Y-97904819D02*
X88309523Y-97904819D01*
X100652319Y-108333333D02*
X101366604Y-108333333D01*
X101366604Y-108333333D02*
X101509461Y-108380952D01*
X101509461Y-108380952D02*
X101604700Y-108476190D01*
X101604700Y-108476190D02*
X101652319Y-108619047D01*
X101652319Y-108619047D02*
X101652319Y-108714285D01*
X101652319Y-107333333D02*
X101652319Y-107904761D01*
X101652319Y-107619047D02*
X100652319Y-107619047D01*
X100652319Y-107619047D02*
X100795176Y-107714285D01*
X100795176Y-107714285D02*
X100890414Y-107809523D01*
X100890414Y-107809523D02*
X100938033Y-107904761D01*
X102334819Y-78833333D02*
X103049104Y-78833333D01*
X103049104Y-78833333D02*
X103191961Y-78880952D01*
X103191961Y-78880952D02*
X103287200Y-78976190D01*
X103287200Y-78976190D02*
X103334819Y-79119047D01*
X103334819Y-79119047D02*
X103334819Y-79214285D01*
X102334819Y-78452380D02*
X102334819Y-77833333D01*
X102334819Y-77833333D02*
X102715771Y-78166666D01*
X102715771Y-78166666D02*
X102715771Y-78023809D01*
X102715771Y-78023809D02*
X102763390Y-77928571D01*
X102763390Y-77928571D02*
X102811009Y-77880952D01*
X102811009Y-77880952D02*
X102906247Y-77833333D01*
X102906247Y-77833333D02*
X103144342Y-77833333D01*
X103144342Y-77833333D02*
X103239580Y-77880952D01*
X103239580Y-77880952D02*
X103287200Y-77928571D01*
X103287200Y-77928571D02*
X103334819Y-78023809D01*
X103334819Y-78023809D02*
X103334819Y-78309523D01*
X103334819Y-78309523D02*
X103287200Y-78404761D01*
X103287200Y-78404761D02*
X103239580Y-78452380D01*
X45386666Y-71049819D02*
X45386666Y-71764104D01*
X45386666Y-71764104D02*
X45339047Y-71906961D01*
X45339047Y-71906961D02*
X45243809Y-72002200D01*
X45243809Y-72002200D02*
X45100952Y-72049819D01*
X45100952Y-72049819D02*
X45005714Y-72049819D01*
X46339047Y-71049819D02*
X45862857Y-71049819D01*
X45862857Y-71049819D02*
X45815238Y-71526009D01*
X45815238Y-71526009D02*
X45862857Y-71478390D01*
X45862857Y-71478390D02*
X45958095Y-71430771D01*
X45958095Y-71430771D02*
X46196190Y-71430771D01*
X46196190Y-71430771D02*
X46291428Y-71478390D01*
X46291428Y-71478390D02*
X46339047Y-71526009D01*
X46339047Y-71526009D02*
X46386666Y-71621247D01*
X46386666Y-71621247D02*
X46386666Y-71859342D01*
X46386666Y-71859342D02*
X46339047Y-71954580D01*
X46339047Y-71954580D02*
X46291428Y-72002200D01*
X46291428Y-72002200D02*
X46196190Y-72049819D01*
X46196190Y-72049819D02*
X45958095Y-72049819D01*
X45958095Y-72049819D02*
X45862857Y-72002200D01*
X45862857Y-72002200D02*
X45815238Y-71954580D01*
X66254819Y-88389181D02*
X67064342Y-88389181D01*
X67064342Y-88389181D02*
X67159580Y-88341562D01*
X67159580Y-88341562D02*
X67207200Y-88293943D01*
X67207200Y-88293943D02*
X67254819Y-88198705D01*
X67254819Y-88198705D02*
X67254819Y-88008229D01*
X67254819Y-88008229D02*
X67207200Y-87912991D01*
X67207200Y-87912991D02*
X67159580Y-87865372D01*
X67159580Y-87865372D02*
X67064342Y-87817753D01*
X67064342Y-87817753D02*
X66254819Y-87817753D01*
X66254819Y-87436800D02*
X66254819Y-86817753D01*
X66254819Y-86817753D02*
X66635771Y-87151086D01*
X66635771Y-87151086D02*
X66635771Y-87008229D01*
X66635771Y-87008229D02*
X66683390Y-86912991D01*
X66683390Y-86912991D02*
X66731009Y-86865372D01*
X66731009Y-86865372D02*
X66826247Y-86817753D01*
X66826247Y-86817753D02*
X67064342Y-86817753D01*
X67064342Y-86817753D02*
X67159580Y-86865372D01*
X67159580Y-86865372D02*
X67207200Y-86912991D01*
X67207200Y-86912991D02*
X67254819Y-87008229D01*
X67254819Y-87008229D02*
X67254819Y-87293943D01*
X67254819Y-87293943D02*
X67207200Y-87389181D01*
X67207200Y-87389181D02*
X67159580Y-87436800D01*
D11*
X56171289Y-90065333D02*
X56171289Y-89331999D01*
X56171289Y-89331999D02*
X57171289Y-89803428D01*
X77373962Y-105241662D02*
X77373962Y-104560709D01*
X77373962Y-104560709D02*
X77754914Y-104927376D01*
X77754914Y-104927376D02*
X77754914Y-104770233D01*
X77754914Y-104770233D02*
X77802533Y-104665471D01*
X77802533Y-104665471D02*
X77850152Y-104613090D01*
X77850152Y-104613090D02*
X77945390Y-104560709D01*
X77945390Y-104560709D02*
X78183485Y-104560709D01*
X78183485Y-104560709D02*
X78278723Y-104613090D01*
X78278723Y-104613090D02*
X78326343Y-104665471D01*
X78326343Y-104665471D02*
X78373962Y-104770233D01*
X78373962Y-104770233D02*
X78373962Y-105084519D01*
X78373962Y-105084519D02*
X78326343Y-105189281D01*
X78326343Y-105189281D02*
X78278723Y-105241662D01*
X77373962Y-103879757D02*
X77373962Y-103774995D01*
X77373962Y-103774995D02*
X77421581Y-103670233D01*
X77421581Y-103670233D02*
X77469200Y-103617852D01*
X77469200Y-103617852D02*
X77564438Y-103565471D01*
X77564438Y-103565471D02*
X77754914Y-103513090D01*
X77754914Y-103513090D02*
X77993009Y-103513090D01*
X77993009Y-103513090D02*
X78183485Y-103565471D01*
X78183485Y-103565471D02*
X78278723Y-103617852D01*
X78278723Y-103617852D02*
X78326343Y-103670233D01*
X78326343Y-103670233D02*
X78373962Y-103774995D01*
X78373962Y-103774995D02*
X78373962Y-103879757D01*
X78373962Y-103879757D02*
X78326343Y-103984519D01*
X78326343Y-103984519D02*
X78278723Y-104036900D01*
X78278723Y-104036900D02*
X78183485Y-104089281D01*
X78183485Y-104089281D02*
X77993009Y-104141662D01*
X77993009Y-104141662D02*
X77754914Y-104141662D01*
X77754914Y-104141662D02*
X77564438Y-104089281D01*
X77564438Y-104089281D02*
X77469200Y-104036900D01*
X77469200Y-104036900D02*
X77421581Y-103984519D01*
X77421581Y-103984519D02*
X77373962Y-103879757D01*
X77469200Y-92489281D02*
X77421581Y-92436900D01*
X77421581Y-92436900D02*
X77373962Y-92332138D01*
X77373962Y-92332138D02*
X77373962Y-92070233D01*
X77373962Y-92070233D02*
X77421581Y-91965471D01*
X77421581Y-91965471D02*
X77469200Y-91913090D01*
X77469200Y-91913090D02*
X77564438Y-91860709D01*
X77564438Y-91860709D02*
X77659676Y-91860709D01*
X77659676Y-91860709D02*
X77802533Y-91913090D01*
X77802533Y-91913090D02*
X78373962Y-92541662D01*
X78373962Y-92541662D02*
X78373962Y-91860709D01*
X77373962Y-90865471D02*
X77373962Y-91389281D01*
X77373962Y-91389281D02*
X77850152Y-91441662D01*
X77850152Y-91441662D02*
X77802533Y-91389281D01*
X77802533Y-91389281D02*
X77754914Y-91284519D01*
X77754914Y-91284519D02*
X77754914Y-91022614D01*
X77754914Y-91022614D02*
X77802533Y-90917852D01*
X77802533Y-90917852D02*
X77850152Y-90865471D01*
X77850152Y-90865471D02*
X77945390Y-90813090D01*
X77945390Y-90813090D02*
X78183485Y-90813090D01*
X78183485Y-90813090D02*
X78278723Y-90865471D01*
X78278723Y-90865471D02*
X78326343Y-90917852D01*
X78326343Y-90917852D02*
X78373962Y-91022614D01*
X78373962Y-91022614D02*
X78373962Y-91284519D01*
X78373962Y-91284519D02*
X78326343Y-91389281D01*
X78326343Y-91389281D02*
X78278723Y-91441662D01*
X77413948Y-79890235D02*
X77366329Y-79837854D01*
X77366329Y-79837854D02*
X77318710Y-79733092D01*
X77318710Y-79733092D02*
X77318710Y-79471187D01*
X77318710Y-79471187D02*
X77366329Y-79366425D01*
X77366329Y-79366425D02*
X77413948Y-79314044D01*
X77413948Y-79314044D02*
X77509186Y-79261663D01*
X77509186Y-79261663D02*
X77604424Y-79261663D01*
X77604424Y-79261663D02*
X77747281Y-79314044D01*
X77747281Y-79314044D02*
X78318710Y-79942616D01*
X78318710Y-79942616D02*
X78318710Y-79261663D01*
X77318710Y-78580711D02*
X77318710Y-78475949D01*
X77318710Y-78475949D02*
X77366329Y-78371187D01*
X77366329Y-78371187D02*
X77413948Y-78318806D01*
X77413948Y-78318806D02*
X77509186Y-78266425D01*
X77509186Y-78266425D02*
X77699662Y-78214044D01*
X77699662Y-78214044D02*
X77937757Y-78214044D01*
X77937757Y-78214044D02*
X78128233Y-78266425D01*
X78128233Y-78266425D02*
X78223471Y-78318806D01*
X78223471Y-78318806D02*
X78271091Y-78371187D01*
X78271091Y-78371187D02*
X78318710Y-78475949D01*
X78318710Y-78475949D02*
X78318710Y-78580711D01*
X78318710Y-78580711D02*
X78271091Y-78685473D01*
X78271091Y-78685473D02*
X78223471Y-78737854D01*
X78223471Y-78737854D02*
X78128233Y-78790235D01*
X78128233Y-78790235D02*
X77937757Y-78842616D01*
X77937757Y-78842616D02*
X77699662Y-78842616D01*
X77699662Y-78842616D02*
X77509186Y-78790235D01*
X77509186Y-78790235D02*
X77413948Y-78737854D01*
X77413948Y-78737854D02*
X77366329Y-78685473D01*
X77366329Y-78685473D02*
X77318710Y-78580711D01*
X78313357Y-74293603D02*
X78313357Y-74922175D01*
X78313357Y-74607889D02*
X77313357Y-74607889D01*
X77313357Y-74607889D02*
X77456214Y-74712651D01*
X77456214Y-74712651D02*
X77551452Y-74817413D01*
X77551452Y-74817413D02*
X77599071Y-74922175D01*
X77741928Y-73665032D02*
X77694309Y-73769794D01*
X77694309Y-73769794D02*
X77646690Y-73822175D01*
X77646690Y-73822175D02*
X77551452Y-73874556D01*
X77551452Y-73874556D02*
X77503833Y-73874556D01*
X77503833Y-73874556D02*
X77408595Y-73822175D01*
X77408595Y-73822175D02*
X77360976Y-73769794D01*
X77360976Y-73769794D02*
X77313357Y-73665032D01*
X77313357Y-73665032D02*
X77313357Y-73455508D01*
X77313357Y-73455508D02*
X77360976Y-73350746D01*
X77360976Y-73350746D02*
X77408595Y-73298365D01*
X77408595Y-73298365D02*
X77503833Y-73245984D01*
X77503833Y-73245984D02*
X77551452Y-73245984D01*
X77551452Y-73245984D02*
X77646690Y-73298365D01*
X77646690Y-73298365D02*
X77694309Y-73350746D01*
X77694309Y-73350746D02*
X77741928Y-73455508D01*
X77741928Y-73455508D02*
X77741928Y-73665032D01*
X77741928Y-73665032D02*
X77789547Y-73769794D01*
X77789547Y-73769794D02*
X77837166Y-73822175D01*
X77837166Y-73822175D02*
X77932404Y-73874556D01*
X77932404Y-73874556D02*
X78122880Y-73874556D01*
X78122880Y-73874556D02*
X78218118Y-73822175D01*
X78218118Y-73822175D02*
X78265738Y-73769794D01*
X78265738Y-73769794D02*
X78313357Y-73665032D01*
X78313357Y-73665032D02*
X78313357Y-73455508D01*
X78313357Y-73455508D02*
X78265738Y-73350746D01*
X78265738Y-73350746D02*
X78218118Y-73298365D01*
X78218118Y-73298365D02*
X78122880Y-73245984D01*
X78122880Y-73245984D02*
X77932404Y-73245984D01*
X77932404Y-73245984D02*
X77837166Y-73298365D01*
X77837166Y-73298365D02*
X77789547Y-73350746D01*
X77789547Y-73350746D02*
X77741928Y-73455508D01*
X57110296Y-79772680D02*
X57110296Y-80401252D01*
X57110296Y-80086966D02*
X56110296Y-80086966D01*
X56110296Y-80086966D02*
X56253153Y-80191728D01*
X56253153Y-80191728D02*
X56348391Y-80296490D01*
X56348391Y-80296490D02*
X56396010Y-80401252D01*
X57110296Y-78725061D02*
X57110296Y-79353633D01*
X57110296Y-79039347D02*
X56110296Y-79039347D01*
X56110296Y-79039347D02*
X56253153Y-79144109D01*
X56253153Y-79144109D02*
X56348391Y-79248871D01*
X56348391Y-79248871D02*
X56396010Y-79353633D01*
X77469200Y-95029281D02*
X77421581Y-94976900D01*
X77421581Y-94976900D02*
X77373962Y-94872138D01*
X77373962Y-94872138D02*
X77373962Y-94610233D01*
X77373962Y-94610233D02*
X77421581Y-94505471D01*
X77421581Y-94505471D02*
X77469200Y-94453090D01*
X77469200Y-94453090D02*
X77564438Y-94400709D01*
X77564438Y-94400709D02*
X77659676Y-94400709D01*
X77659676Y-94400709D02*
X77802533Y-94453090D01*
X77802533Y-94453090D02*
X78373962Y-95081662D01*
X78373962Y-95081662D02*
X78373962Y-94400709D01*
X77373962Y-93457852D02*
X77373962Y-93667376D01*
X77373962Y-93667376D02*
X77421581Y-93772138D01*
X77421581Y-93772138D02*
X77469200Y-93824519D01*
X77469200Y-93824519D02*
X77612057Y-93929281D01*
X77612057Y-93929281D02*
X77802533Y-93981662D01*
X77802533Y-93981662D02*
X78183485Y-93981662D01*
X78183485Y-93981662D02*
X78278723Y-93929281D01*
X78278723Y-93929281D02*
X78326343Y-93876900D01*
X78326343Y-93876900D02*
X78373962Y-93772138D01*
X78373962Y-93772138D02*
X78373962Y-93562614D01*
X78373962Y-93562614D02*
X78326343Y-93457852D01*
X78326343Y-93457852D02*
X78278723Y-93405471D01*
X78278723Y-93405471D02*
X78183485Y-93353090D01*
X78183485Y-93353090D02*
X77945390Y-93353090D01*
X77945390Y-93353090D02*
X77850152Y-93405471D01*
X77850152Y-93405471D02*
X77802533Y-93457852D01*
X77802533Y-93457852D02*
X77754914Y-93562614D01*
X77754914Y-93562614D02*
X77754914Y-93772138D01*
X77754914Y-93772138D02*
X77802533Y-93876900D01*
X77802533Y-93876900D02*
X77850152Y-93929281D01*
X77850152Y-93929281D02*
X77945390Y-93981662D01*
X77413948Y-87510235D02*
X77366329Y-87457854D01*
X77366329Y-87457854D02*
X77318710Y-87353092D01*
X77318710Y-87353092D02*
X77318710Y-87091187D01*
X77318710Y-87091187D02*
X77366329Y-86986425D01*
X77366329Y-86986425D02*
X77413948Y-86934044D01*
X77413948Y-86934044D02*
X77509186Y-86881663D01*
X77509186Y-86881663D02*
X77604424Y-86881663D01*
X77604424Y-86881663D02*
X77747281Y-86934044D01*
X77747281Y-86934044D02*
X78318710Y-87562616D01*
X78318710Y-87562616D02*
X78318710Y-86881663D01*
X77318710Y-86514997D02*
X77318710Y-85834044D01*
X77318710Y-85834044D02*
X77699662Y-86200711D01*
X77699662Y-86200711D02*
X77699662Y-86043568D01*
X77699662Y-86043568D02*
X77747281Y-85938806D01*
X77747281Y-85938806D02*
X77794900Y-85886425D01*
X77794900Y-85886425D02*
X77890138Y-85834044D01*
X77890138Y-85834044D02*
X78128233Y-85834044D01*
X78128233Y-85834044D02*
X78223471Y-85886425D01*
X78223471Y-85886425D02*
X78271091Y-85938806D01*
X78271091Y-85938806D02*
X78318710Y-86043568D01*
X78318710Y-86043568D02*
X78318710Y-86357854D01*
X78318710Y-86357854D02*
X78271091Y-86462616D01*
X78271091Y-86462616D02*
X78223471Y-86514997D01*
X56266527Y-102712952D02*
X56218908Y-102660571D01*
X56218908Y-102660571D02*
X56171289Y-102555809D01*
X56171289Y-102555809D02*
X56171289Y-102293904D01*
X56171289Y-102293904D02*
X56218908Y-102189142D01*
X56218908Y-102189142D02*
X56266527Y-102136761D01*
X56266527Y-102136761D02*
X56361765Y-102084380D01*
X56361765Y-102084380D02*
X56457003Y-102084380D01*
X56457003Y-102084380D02*
X56599860Y-102136761D01*
X56599860Y-102136761D02*
X57171289Y-102765333D01*
X57171289Y-102765333D02*
X57171289Y-102084380D01*
X56171289Y-94516761D02*
X56171289Y-95040571D01*
X56171289Y-95040571D02*
X56647479Y-95092952D01*
X56647479Y-95092952D02*
X56599860Y-95040571D01*
X56599860Y-95040571D02*
X56552241Y-94935809D01*
X56552241Y-94935809D02*
X56552241Y-94673904D01*
X56552241Y-94673904D02*
X56599860Y-94569142D01*
X56599860Y-94569142D02*
X56647479Y-94516761D01*
X56647479Y-94516761D02*
X56742717Y-94464380D01*
X56742717Y-94464380D02*
X56980812Y-94464380D01*
X56980812Y-94464380D02*
X57076050Y-94516761D01*
X57076050Y-94516761D02*
X57123670Y-94569142D01*
X57123670Y-94569142D02*
X57171289Y-94673904D01*
X57171289Y-94673904D02*
X57171289Y-94935809D01*
X57171289Y-94935809D02*
X57123670Y-95040571D01*
X57123670Y-95040571D02*
X57076050Y-95092952D01*
X77469200Y-97569281D02*
X77421581Y-97516900D01*
X77421581Y-97516900D02*
X77373962Y-97412138D01*
X77373962Y-97412138D02*
X77373962Y-97150233D01*
X77373962Y-97150233D02*
X77421581Y-97045471D01*
X77421581Y-97045471D02*
X77469200Y-96993090D01*
X77469200Y-96993090D02*
X77564438Y-96940709D01*
X77564438Y-96940709D02*
X77659676Y-96940709D01*
X77659676Y-96940709D02*
X77802533Y-96993090D01*
X77802533Y-96993090D02*
X78373962Y-97621662D01*
X78373962Y-97621662D02*
X78373962Y-96940709D01*
X77373962Y-96574043D02*
X77373962Y-95840709D01*
X77373962Y-95840709D02*
X78373962Y-96312138D01*
X56599860Y-87263428D02*
X56552241Y-87368190D01*
X56552241Y-87368190D02*
X56504622Y-87420571D01*
X56504622Y-87420571D02*
X56409384Y-87472952D01*
X56409384Y-87472952D02*
X56361765Y-87472952D01*
X56361765Y-87472952D02*
X56266527Y-87420571D01*
X56266527Y-87420571D02*
X56218908Y-87368190D01*
X56218908Y-87368190D02*
X56171289Y-87263428D01*
X56171289Y-87263428D02*
X56171289Y-87053904D01*
X56171289Y-87053904D02*
X56218908Y-86949142D01*
X56218908Y-86949142D02*
X56266527Y-86896761D01*
X56266527Y-86896761D02*
X56361765Y-86844380D01*
X56361765Y-86844380D02*
X56409384Y-86844380D01*
X56409384Y-86844380D02*
X56504622Y-86896761D01*
X56504622Y-86896761D02*
X56552241Y-86949142D01*
X56552241Y-86949142D02*
X56599860Y-87053904D01*
X56599860Y-87053904D02*
X56599860Y-87263428D01*
X56599860Y-87263428D02*
X56647479Y-87368190D01*
X56647479Y-87368190D02*
X56695098Y-87420571D01*
X56695098Y-87420571D02*
X56790336Y-87472952D01*
X56790336Y-87472952D02*
X56980812Y-87472952D01*
X56980812Y-87472952D02*
X57076050Y-87420571D01*
X57076050Y-87420571D02*
X57123670Y-87368190D01*
X57123670Y-87368190D02*
X57171289Y-87263428D01*
X57171289Y-87263428D02*
X57171289Y-87053904D01*
X57171289Y-87053904D02*
X57123670Y-86949142D01*
X57123670Y-86949142D02*
X57076050Y-86896761D01*
X57076050Y-86896761D02*
X56980812Y-86844380D01*
X56980812Y-86844380D02*
X56790336Y-86844380D01*
X56790336Y-86844380D02*
X56695098Y-86896761D01*
X56695098Y-86896761D02*
X56647479Y-86949142D01*
X56647479Y-86949142D02*
X56599860Y-87053904D01*
X57110296Y-72152680D02*
X57110296Y-72781252D01*
X57110296Y-72466966D02*
X56110296Y-72466966D01*
X56110296Y-72466966D02*
X56253153Y-72571728D01*
X56253153Y-72571728D02*
X56348391Y-72676490D01*
X56348391Y-72676490D02*
X56396010Y-72781252D01*
X56443629Y-71209823D02*
X57110296Y-71209823D01*
X56062677Y-71471728D02*
X56776962Y-71733633D01*
X56776962Y-71733633D02*
X56776962Y-71052680D01*
X77413948Y-90050235D02*
X77366329Y-89997854D01*
X77366329Y-89997854D02*
X77318710Y-89893092D01*
X77318710Y-89893092D02*
X77318710Y-89631187D01*
X77318710Y-89631187D02*
X77366329Y-89526425D01*
X77366329Y-89526425D02*
X77413948Y-89474044D01*
X77413948Y-89474044D02*
X77509186Y-89421663D01*
X77509186Y-89421663D02*
X77604424Y-89421663D01*
X77604424Y-89421663D02*
X77747281Y-89474044D01*
X77747281Y-89474044D02*
X78318710Y-90102616D01*
X78318710Y-90102616D02*
X78318710Y-89421663D01*
X77652043Y-88478806D02*
X78318710Y-88478806D01*
X77271091Y-88740711D02*
X77985376Y-89002616D01*
X77985376Y-89002616D02*
X77985376Y-88321663D01*
X78313357Y-69213603D02*
X78313357Y-69842175D01*
X78313357Y-69527889D02*
X77313357Y-69527889D01*
X77313357Y-69527889D02*
X77456214Y-69632651D01*
X77456214Y-69632651D02*
X77551452Y-69737413D01*
X77551452Y-69737413D02*
X77599071Y-69842175D01*
X77313357Y-68270746D02*
X77313357Y-68480270D01*
X77313357Y-68480270D02*
X77360976Y-68585032D01*
X77360976Y-68585032D02*
X77408595Y-68637413D01*
X77408595Y-68637413D02*
X77551452Y-68742175D01*
X77551452Y-68742175D02*
X77741928Y-68794556D01*
X77741928Y-68794556D02*
X78122880Y-68794556D01*
X78122880Y-68794556D02*
X78218118Y-68742175D01*
X78218118Y-68742175D02*
X78265738Y-68689794D01*
X78265738Y-68689794D02*
X78313357Y-68585032D01*
X78313357Y-68585032D02*
X78313357Y-68375508D01*
X78313357Y-68375508D02*
X78265738Y-68270746D01*
X78265738Y-68270746D02*
X78218118Y-68218365D01*
X78218118Y-68218365D02*
X78122880Y-68165984D01*
X78122880Y-68165984D02*
X77884785Y-68165984D01*
X77884785Y-68165984D02*
X77789547Y-68218365D01*
X77789547Y-68218365D02*
X77741928Y-68270746D01*
X77741928Y-68270746D02*
X77694309Y-68375508D01*
X77694309Y-68375508D02*
X77694309Y-68585032D01*
X77694309Y-68585032D02*
X77741928Y-68689794D01*
X77741928Y-68689794D02*
X77789547Y-68742175D01*
X77789547Y-68742175D02*
X77884785Y-68794556D01*
X56171289Y-92029142D02*
X56171289Y-92238666D01*
X56171289Y-92238666D02*
X56218908Y-92343428D01*
X56218908Y-92343428D02*
X56266527Y-92395809D01*
X56266527Y-92395809D02*
X56409384Y-92500571D01*
X56409384Y-92500571D02*
X56599860Y-92552952D01*
X56599860Y-92552952D02*
X56980812Y-92552952D01*
X56980812Y-92552952D02*
X57076050Y-92500571D01*
X57076050Y-92500571D02*
X57123670Y-92448190D01*
X57123670Y-92448190D02*
X57171289Y-92343428D01*
X57171289Y-92343428D02*
X57171289Y-92133904D01*
X57171289Y-92133904D02*
X57123670Y-92029142D01*
X57123670Y-92029142D02*
X57076050Y-91976761D01*
X57076050Y-91976761D02*
X56980812Y-91924380D01*
X56980812Y-91924380D02*
X56742717Y-91924380D01*
X56742717Y-91924380D02*
X56647479Y-91976761D01*
X56647479Y-91976761D02*
X56599860Y-92029142D01*
X56599860Y-92029142D02*
X56552241Y-92133904D01*
X56552241Y-92133904D02*
X56552241Y-92343428D01*
X56552241Y-92343428D02*
X56599860Y-92448190D01*
X56599860Y-92448190D02*
X56647479Y-92500571D01*
X56647479Y-92500571D02*
X56742717Y-92552952D01*
X56504622Y-97109142D02*
X57171289Y-97109142D01*
X56123670Y-97371047D02*
X56837955Y-97632952D01*
X56837955Y-97632952D02*
X56837955Y-96951999D01*
X78318710Y-76721663D02*
X78318710Y-77350235D01*
X78318710Y-77035949D02*
X77318710Y-77035949D01*
X77318710Y-77035949D02*
X77461567Y-77140711D01*
X77461567Y-77140711D02*
X77556805Y-77245473D01*
X77556805Y-77245473D02*
X77604424Y-77350235D01*
X78318710Y-76197854D02*
X78318710Y-75988330D01*
X78318710Y-75988330D02*
X78271091Y-75883568D01*
X78271091Y-75883568D02*
X78223471Y-75831187D01*
X78223471Y-75831187D02*
X78080614Y-75726425D01*
X78080614Y-75726425D02*
X77890138Y-75674044D01*
X77890138Y-75674044D02*
X77509186Y-75674044D01*
X77509186Y-75674044D02*
X77413948Y-75726425D01*
X77413948Y-75726425D02*
X77366329Y-75778806D01*
X77366329Y-75778806D02*
X77318710Y-75883568D01*
X77318710Y-75883568D02*
X77318710Y-76093092D01*
X77318710Y-76093092D02*
X77366329Y-76197854D01*
X77366329Y-76197854D02*
X77413948Y-76250235D01*
X77413948Y-76250235D02*
X77509186Y-76302616D01*
X77509186Y-76302616D02*
X77747281Y-76302616D01*
X77747281Y-76302616D02*
X77842519Y-76250235D01*
X77842519Y-76250235D02*
X77890138Y-76197854D01*
X77890138Y-76197854D02*
X77937757Y-76093092D01*
X77937757Y-76093092D02*
X77937757Y-75883568D01*
X77937757Y-75883568D02*
X77890138Y-75778806D01*
X77890138Y-75778806D02*
X77842519Y-75726425D01*
X77842519Y-75726425D02*
X77747281Y-75674044D01*
X56171289Y-100225333D02*
X56171289Y-99544380D01*
X56171289Y-99544380D02*
X56552241Y-99911047D01*
X56552241Y-99911047D02*
X56552241Y-99753904D01*
X56552241Y-99753904D02*
X56599860Y-99649142D01*
X56599860Y-99649142D02*
X56647479Y-99596761D01*
X56647479Y-99596761D02*
X56742717Y-99544380D01*
X56742717Y-99544380D02*
X56980812Y-99544380D01*
X56980812Y-99544380D02*
X57076050Y-99596761D01*
X57076050Y-99596761D02*
X57123670Y-99649142D01*
X57123670Y-99649142D02*
X57171289Y-99753904D01*
X57171289Y-99753904D02*
X57171289Y-100068190D01*
X57171289Y-100068190D02*
X57123670Y-100172952D01*
X57123670Y-100172952D02*
X57076050Y-100225333D01*
X57110296Y-82312680D02*
X57110296Y-82941252D01*
X57110296Y-82626966D02*
X56110296Y-82626966D01*
X56110296Y-82626966D02*
X56253153Y-82731728D01*
X56253153Y-82731728D02*
X56348391Y-82836490D01*
X56348391Y-82836490D02*
X56396010Y-82941252D01*
X56110296Y-81631728D02*
X56110296Y-81526966D01*
X56110296Y-81526966D02*
X56157915Y-81422204D01*
X56157915Y-81422204D02*
X56205534Y-81369823D01*
X56205534Y-81369823D02*
X56300772Y-81317442D01*
X56300772Y-81317442D02*
X56491248Y-81265061D01*
X56491248Y-81265061D02*
X56729343Y-81265061D01*
X56729343Y-81265061D02*
X56919819Y-81317442D01*
X56919819Y-81317442D02*
X57015057Y-81369823D01*
X57015057Y-81369823D02*
X57062677Y-81422204D01*
X57062677Y-81422204D02*
X57110296Y-81526966D01*
X57110296Y-81526966D02*
X57110296Y-81631728D01*
X57110296Y-81631728D02*
X57062677Y-81736490D01*
X57062677Y-81736490D02*
X57015057Y-81788871D01*
X57015057Y-81788871D02*
X56919819Y-81841252D01*
X56919819Y-81841252D02*
X56729343Y-81893633D01*
X56729343Y-81893633D02*
X56491248Y-81893633D01*
X56491248Y-81893633D02*
X56300772Y-81841252D01*
X56300772Y-81841252D02*
X56205534Y-81788871D01*
X56205534Y-81788871D02*
X56157915Y-81736490D01*
X56157915Y-81736490D02*
X56110296Y-81631728D01*
X77469200Y-100109281D02*
X77421581Y-100056900D01*
X77421581Y-100056900D02*
X77373962Y-99952138D01*
X77373962Y-99952138D02*
X77373962Y-99690233D01*
X77373962Y-99690233D02*
X77421581Y-99585471D01*
X77421581Y-99585471D02*
X77469200Y-99533090D01*
X77469200Y-99533090D02*
X77564438Y-99480709D01*
X77564438Y-99480709D02*
X77659676Y-99480709D01*
X77659676Y-99480709D02*
X77802533Y-99533090D01*
X77802533Y-99533090D02*
X78373962Y-100161662D01*
X78373962Y-100161662D02*
X78373962Y-99480709D01*
X77802533Y-98852138D02*
X77754914Y-98956900D01*
X77754914Y-98956900D02*
X77707295Y-99009281D01*
X77707295Y-99009281D02*
X77612057Y-99061662D01*
X77612057Y-99061662D02*
X77564438Y-99061662D01*
X77564438Y-99061662D02*
X77469200Y-99009281D01*
X77469200Y-99009281D02*
X77421581Y-98956900D01*
X77421581Y-98956900D02*
X77373962Y-98852138D01*
X77373962Y-98852138D02*
X77373962Y-98642614D01*
X77373962Y-98642614D02*
X77421581Y-98537852D01*
X77421581Y-98537852D02*
X77469200Y-98485471D01*
X77469200Y-98485471D02*
X77564438Y-98433090D01*
X77564438Y-98433090D02*
X77612057Y-98433090D01*
X77612057Y-98433090D02*
X77707295Y-98485471D01*
X77707295Y-98485471D02*
X77754914Y-98537852D01*
X77754914Y-98537852D02*
X77802533Y-98642614D01*
X77802533Y-98642614D02*
X77802533Y-98852138D01*
X77802533Y-98852138D02*
X77850152Y-98956900D01*
X77850152Y-98956900D02*
X77897771Y-99009281D01*
X77897771Y-99009281D02*
X77993009Y-99061662D01*
X77993009Y-99061662D02*
X78183485Y-99061662D01*
X78183485Y-99061662D02*
X78278723Y-99009281D01*
X78278723Y-99009281D02*
X78326343Y-98956900D01*
X78326343Y-98956900D02*
X78373962Y-98852138D01*
X78373962Y-98852138D02*
X78373962Y-98642614D01*
X78373962Y-98642614D02*
X78326343Y-98537852D01*
X78326343Y-98537852D02*
X78278723Y-98485471D01*
X78278723Y-98485471D02*
X78183485Y-98433090D01*
X78183485Y-98433090D02*
X77993009Y-98433090D01*
X77993009Y-98433090D02*
X77897771Y-98485471D01*
X77897771Y-98485471D02*
X77850152Y-98537852D01*
X77850152Y-98537852D02*
X77802533Y-98642614D01*
X57110296Y-77232680D02*
X57110296Y-77861252D01*
X57110296Y-77546966D02*
X56110296Y-77546966D01*
X56110296Y-77546966D02*
X56253153Y-77651728D01*
X56253153Y-77651728D02*
X56348391Y-77756490D01*
X56348391Y-77756490D02*
X56396010Y-77861252D01*
X56205534Y-76813633D02*
X56157915Y-76761252D01*
X56157915Y-76761252D02*
X56110296Y-76656490D01*
X56110296Y-76656490D02*
X56110296Y-76394585D01*
X56110296Y-76394585D02*
X56157915Y-76289823D01*
X56157915Y-76289823D02*
X56205534Y-76237442D01*
X56205534Y-76237442D02*
X56300772Y-76185061D01*
X56300772Y-76185061D02*
X56396010Y-76185061D01*
X56396010Y-76185061D02*
X56538867Y-76237442D01*
X56538867Y-76237442D02*
X57110296Y-76866014D01*
X57110296Y-76866014D02*
X57110296Y-76185061D01*
X57171289Y-104624380D02*
X57171289Y-105252952D01*
X57171289Y-104938666D02*
X56171289Y-104938666D01*
X56171289Y-104938666D02*
X56314146Y-105043428D01*
X56314146Y-105043428D02*
X56409384Y-105148190D01*
X56409384Y-105148190D02*
X56457003Y-105252952D01*
X77469200Y-102649281D02*
X77421581Y-102596900D01*
X77421581Y-102596900D02*
X77373962Y-102492138D01*
X77373962Y-102492138D02*
X77373962Y-102230233D01*
X77373962Y-102230233D02*
X77421581Y-102125471D01*
X77421581Y-102125471D02*
X77469200Y-102073090D01*
X77469200Y-102073090D02*
X77564438Y-102020709D01*
X77564438Y-102020709D02*
X77659676Y-102020709D01*
X77659676Y-102020709D02*
X77802533Y-102073090D01*
X77802533Y-102073090D02*
X78373962Y-102701662D01*
X78373962Y-102701662D02*
X78373962Y-102020709D01*
X78373962Y-101496900D02*
X78373962Y-101287376D01*
X78373962Y-101287376D02*
X78326343Y-101182614D01*
X78326343Y-101182614D02*
X78278723Y-101130233D01*
X78278723Y-101130233D02*
X78135866Y-101025471D01*
X78135866Y-101025471D02*
X77945390Y-100973090D01*
X77945390Y-100973090D02*
X77564438Y-100973090D01*
X77564438Y-100973090D02*
X77469200Y-101025471D01*
X77469200Y-101025471D02*
X77421581Y-101077852D01*
X77421581Y-101077852D02*
X77373962Y-101182614D01*
X77373962Y-101182614D02*
X77373962Y-101392138D01*
X77373962Y-101392138D02*
X77421581Y-101496900D01*
X77421581Y-101496900D02*
X77469200Y-101549281D01*
X77469200Y-101549281D02*
X77564438Y-101601662D01*
X77564438Y-101601662D02*
X77802533Y-101601662D01*
X77802533Y-101601662D02*
X77897771Y-101549281D01*
X77897771Y-101549281D02*
X77945390Y-101496900D01*
X77945390Y-101496900D02*
X77993009Y-101392138D01*
X77993009Y-101392138D02*
X77993009Y-101182614D01*
X77993009Y-101182614D02*
X77945390Y-101077852D01*
X77945390Y-101077852D02*
X77897771Y-101025471D01*
X77897771Y-101025471D02*
X77802533Y-100973090D01*
X77413948Y-84970235D02*
X77366329Y-84917854D01*
X77366329Y-84917854D02*
X77318710Y-84813092D01*
X77318710Y-84813092D02*
X77318710Y-84551187D01*
X77318710Y-84551187D02*
X77366329Y-84446425D01*
X77366329Y-84446425D02*
X77413948Y-84394044D01*
X77413948Y-84394044D02*
X77509186Y-84341663D01*
X77509186Y-84341663D02*
X77604424Y-84341663D01*
X77604424Y-84341663D02*
X77747281Y-84394044D01*
X77747281Y-84394044D02*
X78318710Y-85022616D01*
X78318710Y-85022616D02*
X78318710Y-84341663D01*
X77413948Y-83922616D02*
X77366329Y-83870235D01*
X77366329Y-83870235D02*
X77318710Y-83765473D01*
X77318710Y-83765473D02*
X77318710Y-83503568D01*
X77318710Y-83503568D02*
X77366329Y-83398806D01*
X77366329Y-83398806D02*
X77413948Y-83346425D01*
X77413948Y-83346425D02*
X77509186Y-83294044D01*
X77509186Y-83294044D02*
X77604424Y-83294044D01*
X77604424Y-83294044D02*
X77747281Y-83346425D01*
X77747281Y-83346425D02*
X78318710Y-83974997D01*
X78318710Y-83974997D02*
X78318710Y-83294044D01*
X77413948Y-82430235D02*
X77366329Y-82377854D01*
X77366329Y-82377854D02*
X77318710Y-82273092D01*
X77318710Y-82273092D02*
X77318710Y-82011187D01*
X77318710Y-82011187D02*
X77366329Y-81906425D01*
X77366329Y-81906425D02*
X77413948Y-81854044D01*
X77413948Y-81854044D02*
X77509186Y-81801663D01*
X77509186Y-81801663D02*
X77604424Y-81801663D01*
X77604424Y-81801663D02*
X77747281Y-81854044D01*
X77747281Y-81854044D02*
X78318710Y-82482616D01*
X78318710Y-82482616D02*
X78318710Y-81801663D01*
X78318710Y-80754044D02*
X78318710Y-81382616D01*
X78318710Y-81068330D02*
X77318710Y-81068330D01*
X77318710Y-81068330D02*
X77461567Y-81173092D01*
X77461567Y-81173092D02*
X77556805Y-81277854D01*
X77556805Y-81277854D02*
X77604424Y-81382616D01*
X57171289Y-84828190D02*
X57171289Y-84618666D01*
X57171289Y-84618666D02*
X57123670Y-84513904D01*
X57123670Y-84513904D02*
X57076050Y-84461523D01*
X57076050Y-84461523D02*
X56933193Y-84356761D01*
X56933193Y-84356761D02*
X56742717Y-84304380D01*
X56742717Y-84304380D02*
X56361765Y-84304380D01*
X56361765Y-84304380D02*
X56266527Y-84356761D01*
X56266527Y-84356761D02*
X56218908Y-84409142D01*
X56218908Y-84409142D02*
X56171289Y-84513904D01*
X56171289Y-84513904D02*
X56171289Y-84723428D01*
X56171289Y-84723428D02*
X56218908Y-84828190D01*
X56218908Y-84828190D02*
X56266527Y-84880571D01*
X56266527Y-84880571D02*
X56361765Y-84932952D01*
X56361765Y-84932952D02*
X56599860Y-84932952D01*
X56599860Y-84932952D02*
X56695098Y-84880571D01*
X56695098Y-84880571D02*
X56742717Y-84828190D01*
X56742717Y-84828190D02*
X56790336Y-84723428D01*
X56790336Y-84723428D02*
X56790336Y-84513904D01*
X56790336Y-84513904D02*
X56742717Y-84409142D01*
X56742717Y-84409142D02*
X56695098Y-84356761D01*
X56695098Y-84356761D02*
X56599860Y-84304380D01*
X78313357Y-71753603D02*
X78313357Y-72382175D01*
X78313357Y-72067889D02*
X77313357Y-72067889D01*
X77313357Y-72067889D02*
X77456214Y-72172651D01*
X77456214Y-72172651D02*
X77551452Y-72277413D01*
X77551452Y-72277413D02*
X77599071Y-72382175D01*
X77313357Y-71386937D02*
X77313357Y-70653603D01*
X77313357Y-70653603D02*
X78313357Y-71125032D01*
X57110296Y-69612680D02*
X57110296Y-70241252D01*
X57110296Y-69926966D02*
X56110296Y-69926966D01*
X56110296Y-69926966D02*
X56253153Y-70031728D01*
X56253153Y-70031728D02*
X56348391Y-70136490D01*
X56348391Y-70136490D02*
X56396010Y-70241252D01*
X56110296Y-68617442D02*
X56110296Y-69141252D01*
X56110296Y-69141252D02*
X56586486Y-69193633D01*
X56586486Y-69193633D02*
X56538867Y-69141252D01*
X56538867Y-69141252D02*
X56491248Y-69036490D01*
X56491248Y-69036490D02*
X56491248Y-68774585D01*
X56491248Y-68774585D02*
X56538867Y-68669823D01*
X56538867Y-68669823D02*
X56586486Y-68617442D01*
X56586486Y-68617442D02*
X56681724Y-68565061D01*
X56681724Y-68565061D02*
X56919819Y-68565061D01*
X56919819Y-68565061D02*
X57015057Y-68617442D01*
X57015057Y-68617442D02*
X57062677Y-68669823D01*
X57062677Y-68669823D02*
X57110296Y-68774585D01*
X57110296Y-68774585D02*
X57110296Y-69036490D01*
X57110296Y-69036490D02*
X57062677Y-69141252D01*
X57062677Y-69141252D02*
X57015057Y-69193633D01*
X57110296Y-74692680D02*
X57110296Y-75321252D01*
X57110296Y-75006966D02*
X56110296Y-75006966D01*
X56110296Y-75006966D02*
X56253153Y-75111728D01*
X56253153Y-75111728D02*
X56348391Y-75216490D01*
X56348391Y-75216490D02*
X56396010Y-75321252D01*
X56110296Y-74326014D02*
X56110296Y-73645061D01*
X56110296Y-73645061D02*
X56491248Y-74011728D01*
X56491248Y-74011728D02*
X56491248Y-73854585D01*
X56491248Y-73854585D02*
X56538867Y-73749823D01*
X56538867Y-73749823D02*
X56586486Y-73697442D01*
X56586486Y-73697442D02*
X56681724Y-73645061D01*
X56681724Y-73645061D02*
X56919819Y-73645061D01*
X56919819Y-73645061D02*
X57015057Y-73697442D01*
X57015057Y-73697442D02*
X57062677Y-73749823D01*
X57062677Y-73749823D02*
X57110296Y-73854585D01*
X57110296Y-73854585D02*
X57110296Y-74168871D01*
X57110296Y-74168871D02*
X57062677Y-74273633D01*
X57062677Y-74273633D02*
X57015057Y-74326014D01*
D12*
%TO.C,G\u002A\u002A\u002A*%
G36*
X95211466Y-108890276D02*
G01*
X95233494Y-108894117D01*
X95252222Y-108900600D01*
X95266218Y-108909601D01*
X95272426Y-108917322D01*
X95274979Y-108926007D01*
X95276974Y-108940738D01*
X95278411Y-108960054D01*
X95279290Y-108982490D01*
X95279609Y-109006583D01*
X95279369Y-109030871D01*
X95278570Y-109053890D01*
X95277210Y-109074177D01*
X95275289Y-109090270D01*
X95272807Y-109100705D01*
X95272486Y-109101474D01*
X95267426Y-109110735D01*
X95261735Y-109114766D01*
X95253712Y-109115592D01*
X95242787Y-109114227D01*
X95229128Y-109110763D01*
X95222457Y-109108496D01*
X95196573Y-109100618D01*
X95174434Y-109098132D01*
X95156049Y-109100514D01*
X95132249Y-109110413D01*
X95108178Y-109127811D01*
X95083864Y-109152681D01*
X95059334Y-109184998D01*
X95045758Y-109205940D01*
X95028550Y-109233851D01*
X95028550Y-109485522D01*
X95028550Y-109737193D01*
X95019752Y-109745991D01*
X95010427Y-109752224D01*
X94997205Y-109757476D01*
X94991327Y-109758998D01*
X94978312Y-109760789D01*
X94960073Y-109761997D01*
X94938673Y-109762621D01*
X94916177Y-109762663D01*
X94894648Y-109762122D01*
X94876149Y-109761001D01*
X94862744Y-109759299D01*
X94861123Y-109758953D01*
X94849061Y-109754598D01*
X94838808Y-109748437D01*
X94837591Y-109747379D01*
X94828994Y-109739303D01*
X94828994Y-109334156D01*
X94829006Y-109269034D01*
X94829043Y-109211037D01*
X94829113Y-109159761D01*
X94829219Y-109114801D01*
X94829367Y-109075754D01*
X94829563Y-109042213D01*
X94829812Y-109013774D01*
X94830118Y-108990034D01*
X94830488Y-108970586D01*
X94830926Y-108955027D01*
X94831439Y-108942951D01*
X94832030Y-108933954D01*
X94832706Y-108927632D01*
X94833471Y-108923579D01*
X94834332Y-108921392D01*
X94834384Y-108921315D01*
X94841270Y-108915476D01*
X94852019Y-108910125D01*
X94856034Y-108908747D01*
X94868637Y-108906381D01*
X94886466Y-108904823D01*
X94907258Y-108904086D01*
X94928750Y-108904180D01*
X94948680Y-108905115D01*
X94964784Y-108906903D01*
X94970993Y-108908199D01*
X94980945Y-108911444D01*
X94988164Y-108915749D01*
X94993082Y-108922273D01*
X94996131Y-108932173D01*
X94997747Y-108946607D01*
X94998360Y-108966733D01*
X94998428Y-108981530D01*
X94998428Y-109034050D01*
X95021504Y-109000976D01*
X95040295Y-108976083D01*
X95060607Y-108952720D01*
X95081182Y-108932141D01*
X95100760Y-108915598D01*
X95118084Y-108904345D01*
X95119044Y-108903856D01*
X95139928Y-108895867D01*
X95163249Y-108891025D01*
X95187573Y-108889203D01*
X95211466Y-108890276D01*
G37*
G36*
X95803955Y-108893758D02*
G01*
X95826531Y-108901858D01*
X95834853Y-108906511D01*
X95841288Y-108911838D01*
X95846053Y-108918799D01*
X95849369Y-108928358D01*
X95851453Y-108941477D01*
X95852524Y-108959117D01*
X95852801Y-108982242D01*
X95852503Y-109011812D01*
X95852439Y-109015816D01*
X95851718Y-109047426D01*
X95850430Y-109072151D01*
X95848161Y-109090637D01*
X95844499Y-109103527D01*
X95839031Y-109111467D01*
X95831345Y-109115099D01*
X95821029Y-109115070D01*
X95807668Y-109112023D01*
X95793693Y-109107570D01*
X95764075Y-109100288D01*
X95737664Y-109099641D01*
X95714101Y-109105630D01*
X95708780Y-109108080D01*
X95692412Y-109118881D01*
X95674150Y-109135295D01*
X95655166Y-109156057D01*
X95636632Y-109179902D01*
X95622103Y-109201656D01*
X95600859Y-109235999D01*
X95600859Y-109487724D01*
X95600875Y-109537902D01*
X95600893Y-109581094D01*
X95600866Y-109617847D01*
X95600749Y-109648704D01*
X95600496Y-109674211D01*
X95600061Y-109694914D01*
X95599398Y-109711356D01*
X95598461Y-109724083D01*
X95597204Y-109733641D01*
X95595582Y-109740574D01*
X95593548Y-109745427D01*
X95591057Y-109748745D01*
X95588063Y-109751073D01*
X95584519Y-109752957D01*
X95580381Y-109754942D01*
X95578268Y-109756037D01*
X95571191Y-109757864D01*
X95558197Y-109759443D01*
X95540895Y-109760728D01*
X95520895Y-109761676D01*
X95499808Y-109762244D01*
X95479243Y-109762385D01*
X95460810Y-109762058D01*
X95446119Y-109761217D01*
X95437073Y-109759898D01*
X95419128Y-109753242D01*
X95407562Y-109744340D01*
X95405155Y-109740777D01*
X95404665Y-109736170D01*
X95404201Y-109724632D01*
X95403766Y-109706764D01*
X95403360Y-109683164D01*
X95402985Y-109654432D01*
X95402641Y-109621169D01*
X95402330Y-109583974D01*
X95402053Y-109543446D01*
X95401811Y-109500185D01*
X95401606Y-109454792D01*
X95401437Y-109407865D01*
X95401307Y-109360004D01*
X95401216Y-109311810D01*
X95401166Y-109263881D01*
X95401157Y-109216818D01*
X95401192Y-109171220D01*
X95401270Y-109127687D01*
X95401393Y-109086818D01*
X95401563Y-109049214D01*
X95401779Y-109015474D01*
X95402044Y-108986197D01*
X95402359Y-108961984D01*
X95402724Y-108943434D01*
X95403140Y-108931146D01*
X95403610Y-108925722D01*
X95403643Y-108925620D01*
X95410626Y-108917660D01*
X95424724Y-108911221D01*
X95445652Y-108906411D01*
X95457951Y-108904723D01*
X95479852Y-108903270D01*
X95502359Y-108903571D01*
X95523659Y-108905434D01*
X95541937Y-108908669D01*
X95555378Y-108913083D01*
X95559402Y-108915431D01*
X95563082Y-108918475D01*
X95565711Y-108922081D01*
X95567523Y-108927530D01*
X95568752Y-108936109D01*
X95569630Y-108949103D01*
X95570393Y-108967794D01*
X95570738Y-108977740D01*
X95572620Y-109033003D01*
X95596174Y-108999610D01*
X95614489Y-108975664D01*
X95634585Y-108952845D01*
X95655126Y-108932467D01*
X95674774Y-108915848D01*
X95692190Y-108904303D01*
X95694018Y-108903346D01*
X95718805Y-108894265D01*
X95746983Y-108889623D01*
X95776163Y-108889445D01*
X95803955Y-108893758D01*
G37*
G36*
X92824567Y-108891589D02*
G01*
X92848642Y-108895121D01*
X92878637Y-108902801D01*
X92907895Y-108913270D01*
X92935049Y-108925819D01*
X92958732Y-108939743D01*
X92977579Y-108954334D01*
X92989731Y-108968127D01*
X92996484Y-108982970D01*
X93001502Y-109003573D01*
X93004609Y-109028328D01*
X93005632Y-109055630D01*
X93004396Y-109083869D01*
X93003391Y-109093726D01*
X92999357Y-109117977D01*
X92993649Y-109135061D01*
X92985962Y-109145214D01*
X92975986Y-109148674D01*
X92963416Y-109145679D01*
X92948018Y-109136520D01*
X92921503Y-109117684D01*
X92899810Y-109102937D01*
X92881787Y-109091782D01*
X92866282Y-109083722D01*
X92852143Y-109078261D01*
X92838219Y-109074900D01*
X92823358Y-109073144D01*
X92806408Y-109072495D01*
X92799476Y-109072437D01*
X92781210Y-109072526D01*
X92768152Y-109073243D01*
X92757981Y-109075026D01*
X92748376Y-109078313D01*
X92737017Y-109083545D01*
X92734684Y-109084689D01*
X92713342Y-109097497D01*
X92695726Y-109113643D01*
X92680232Y-109134776D01*
X92672181Y-109148843D01*
X92659370Y-109178854D01*
X92649488Y-109214366D01*
X92642545Y-109253941D01*
X92638548Y-109296139D01*
X92637506Y-109339523D01*
X92639427Y-109382652D01*
X92644319Y-109424089D01*
X92652191Y-109462393D01*
X92663051Y-109496127D01*
X92670088Y-109511792D01*
X92682876Y-109532101D01*
X92699517Y-109551454D01*
X92717981Y-109567797D01*
X92736239Y-109579072D01*
X92736669Y-109579268D01*
X92746223Y-109583169D01*
X92755595Y-109585740D01*
X92766724Y-109587246D01*
X92781548Y-109587953D01*
X92801437Y-109588126D01*
X92820731Y-109588041D01*
X92834565Y-109587525D01*
X92845012Y-109586188D01*
X92854141Y-109583637D01*
X92864024Y-109579482D01*
X92874859Y-109574252D01*
X92889769Y-109565932D01*
X92907783Y-109554395D01*
X92926317Y-109541356D01*
X92938666Y-109531894D01*
X92956724Y-109517966D01*
X92970345Y-109508980D01*
X92980498Y-109504636D01*
X92988154Y-109504635D01*
X92994283Y-109508679D01*
X92998082Y-109513597D01*
X93000396Y-109517944D01*
X93002114Y-109523654D01*
X93003321Y-109531824D01*
X93004102Y-109543550D01*
X93004544Y-109559930D01*
X93004732Y-109582059D01*
X93004758Y-109599256D01*
X93004678Y-109625726D01*
X93004382Y-109645790D01*
X93003784Y-109660572D01*
X93002800Y-109671194D01*
X93001344Y-109678781D01*
X92999331Y-109684455D01*
X92998114Y-109686882D01*
X92987734Y-109700141D01*
X92971237Y-109714178D01*
X92949883Y-109728262D01*
X92924934Y-109741664D01*
X92897649Y-109753653D01*
X92869290Y-109763498D01*
X92862514Y-109765447D01*
X92837077Y-109770829D01*
X92806910Y-109774652D01*
X92774678Y-109776768D01*
X92743050Y-109777031D01*
X92714691Y-109775293D01*
X92705573Y-109774115D01*
X92659510Y-109763467D01*
X92617058Y-109746299D01*
X92578464Y-109722825D01*
X92543972Y-109693262D01*
X92513827Y-109657823D01*
X92488275Y-109616725D01*
X92467560Y-109570182D01*
X92464890Y-109562759D01*
X92456407Y-109536998D01*
X92449702Y-109512814D01*
X92444589Y-109488800D01*
X92440880Y-109463546D01*
X92438389Y-109435645D01*
X92436929Y-109403689D01*
X92436312Y-109366269D01*
X92436260Y-109347153D01*
X92436478Y-109309596D01*
X92437207Y-109278137D01*
X92438620Y-109251351D01*
X92440886Y-109227815D01*
X92444178Y-109206104D01*
X92448665Y-109184792D01*
X92454520Y-109162457D01*
X92461126Y-109140219D01*
X92480354Y-109088477D01*
X92504329Y-109042416D01*
X92532961Y-109002131D01*
X92566162Y-108967715D01*
X92603842Y-108939263D01*
X92645914Y-108916869D01*
X92684716Y-108902769D01*
X92716656Y-108895575D01*
X92752494Y-108891226D01*
X92789406Y-108889854D01*
X92824567Y-108891589D01*
G37*
G36*
X89547192Y-108890409D02*
G01*
X89574946Y-108893008D01*
X89590007Y-108895503D01*
X89636463Y-108908583D01*
X89678413Y-108927650D01*
X89715766Y-108952591D01*
X89748432Y-108983294D01*
X89776318Y-109019646D01*
X89799334Y-109061532D01*
X89817388Y-109108841D01*
X89830390Y-109161459D01*
X89836414Y-109201200D01*
X89838012Y-109219981D01*
X89839134Y-109243361D01*
X89839680Y-109268417D01*
X89839553Y-109292225D01*
X89839531Y-109293177D01*
X89838551Y-109318884D01*
X89836732Y-109338380D01*
X89833643Y-109352973D01*
X89828850Y-109363972D01*
X89821921Y-109372685D01*
X89812423Y-109380420D01*
X89810171Y-109381968D01*
X89797581Y-109390453D01*
X89574543Y-109390453D01*
X89351504Y-109390453D01*
X89353326Y-109415868D01*
X89359073Y-109460321D01*
X89369538Y-109498921D01*
X89384750Y-109531704D01*
X89404734Y-109558706D01*
X89429518Y-109579965D01*
X89459128Y-109595516D01*
X89492931Y-109605269D01*
X89512151Y-109607583D01*
X89537981Y-109608420D01*
X89568235Y-109607811D01*
X89600425Y-109605672D01*
X89630239Y-109601670D01*
X89659815Y-109595335D01*
X89691291Y-109586195D01*
X89726804Y-109573779D01*
X89732537Y-109571633D01*
X89753436Y-109563986D01*
X89768667Y-109559152D01*
X89779486Y-109556986D01*
X89787150Y-109557338D01*
X89792913Y-109560061D01*
X89797170Y-109564035D01*
X89799989Y-109567962D01*
X89802025Y-109573383D01*
X89803440Y-109581566D01*
X89804395Y-109593778D01*
X89805053Y-109611288D01*
X89805455Y-109628985D01*
X89805812Y-109651203D01*
X89805778Y-109667379D01*
X89805202Y-109678999D01*
X89803933Y-109687549D01*
X89801820Y-109694513D01*
X89798711Y-109701378D01*
X89797924Y-109702932D01*
X89790533Y-109713843D01*
X89779713Y-109723426D01*
X89764448Y-109732275D01*
X89743717Y-109740985D01*
X89717750Y-109749762D01*
X89685623Y-109759124D01*
X89655878Y-109766098D01*
X89626298Y-109771018D01*
X89594666Y-109774221D01*
X89558765Y-109776040D01*
X89540779Y-109776494D01*
X89518031Y-109776857D01*
X89497661Y-109777043D01*
X89480951Y-109777052D01*
X89469181Y-109776882D01*
X89463633Y-109776534D01*
X89463593Y-109776525D01*
X89457275Y-109775288D01*
X89445854Y-109773273D01*
X89431664Y-109770890D01*
X89429918Y-109770605D01*
X89381196Y-109759199D01*
X89336629Y-109741662D01*
X89296462Y-109718167D01*
X89260939Y-109688888D01*
X89230305Y-109653998D01*
X89204803Y-109613671D01*
X89202363Y-109608991D01*
X89188057Y-109578651D01*
X89176595Y-109548611D01*
X89167688Y-109517513D01*
X89161051Y-109483996D01*
X89156396Y-109446701D01*
X89153437Y-109404269D01*
X89152236Y-109371374D01*
X89151588Y-109329966D01*
X89152073Y-109294344D01*
X89153838Y-109262826D01*
X89155533Y-109247375D01*
X89353286Y-109247375D01*
X89501227Y-109247375D01*
X89649168Y-109247375D01*
X89646638Y-109213871D01*
X89641383Y-109172743D01*
X89632200Y-109137812D01*
X89618922Y-109108754D01*
X89601382Y-109085241D01*
X89579412Y-109066948D01*
X89567841Y-109060232D01*
X89547221Y-109052750D01*
X89522477Y-109048590D01*
X89496299Y-109047874D01*
X89471378Y-109050720D01*
X89455303Y-109055200D01*
X89429203Y-109068963D01*
X89406317Y-109089017D01*
X89387079Y-109114659D01*
X89371918Y-109145181D01*
X89361267Y-109179879D01*
X89355558Y-109218047D01*
X89355547Y-109218195D01*
X89353286Y-109247375D01*
X89155533Y-109247375D01*
X89157030Y-109233731D01*
X89161798Y-109205380D01*
X89168287Y-109176091D01*
X89169946Y-109169415D01*
X89186741Y-109115509D01*
X89208489Y-109066818D01*
X89235001Y-109023537D01*
X89266088Y-108985867D01*
X89301561Y-108954004D01*
X89341231Y-108928147D01*
X89384910Y-108908493D01*
X89431491Y-108895427D01*
X89455899Y-108891858D01*
X89485059Y-108889833D01*
X89516359Y-108889350D01*
X89547192Y-108890409D01*
G37*
G36*
X88812639Y-108696648D02*
G01*
X88834827Y-108698199D01*
X88851542Y-108701039D01*
X88863788Y-108705374D01*
X88872566Y-108711412D01*
X88876020Y-108715199D01*
X88878440Y-108718649D01*
X88880295Y-108722720D01*
X88881660Y-108728391D01*
X88882611Y-108736642D01*
X88883221Y-108748453D01*
X88883564Y-108764803D01*
X88883717Y-108786671D01*
X88883753Y-108815037D01*
X88883753Y-108816768D01*
X88883753Y-108908508D01*
X88964558Y-108908508D01*
X88991244Y-108908537D01*
X89011431Y-108908690D01*
X89026148Y-108909060D01*
X89036426Y-108909743D01*
X89043295Y-108910836D01*
X89047786Y-108912433D01*
X89050928Y-108914629D01*
X89052993Y-108916698D01*
X89058161Y-108923848D01*
X89061879Y-108933306D01*
X89064346Y-108946270D01*
X89065764Y-108963940D01*
X89066330Y-108987514D01*
X89066365Y-108996990D01*
X89066035Y-109022849D01*
X89064904Y-109042493D01*
X89062759Y-109057216D01*
X89059388Y-109068309D01*
X89054578Y-109077067D01*
X89052814Y-109079442D01*
X89045110Y-109089237D01*
X88964257Y-109089237D01*
X88883405Y-109089237D01*
X88884585Y-109302912D01*
X88884851Y-109348660D01*
X88885115Y-109387513D01*
X88885403Y-109420103D01*
X88885736Y-109447065D01*
X88886138Y-109469034D01*
X88886631Y-109486642D01*
X88887240Y-109500526D01*
X88887986Y-109511318D01*
X88888892Y-109519653D01*
X88889982Y-109526165D01*
X88891279Y-109531488D01*
X88892806Y-109536256D01*
X88893074Y-109537014D01*
X88904281Y-109558923D01*
X88919881Y-109574891D01*
X88939515Y-109584815D01*
X88962827Y-109588596D01*
X88989458Y-109586133D01*
X89019050Y-109577327D01*
X89026385Y-109574331D01*
X89040152Y-109569551D01*
X89049903Y-109569502D01*
X89056642Y-109574911D01*
X89061370Y-109586502D01*
X89064590Y-109601942D01*
X89066621Y-109620331D01*
X89067440Y-109642418D01*
X89067128Y-109665969D01*
X89065766Y-109688748D01*
X89063436Y-109708521D01*
X89060217Y-109723053D01*
X89060198Y-109723110D01*
X89051437Y-109738379D01*
X89035919Y-109751108D01*
X89013542Y-109761344D01*
X88984206Y-109769133D01*
X88950733Y-109774207D01*
X88933284Y-109776115D01*
X88920772Y-109777222D01*
X88910648Y-109777528D01*
X88900362Y-109777030D01*
X88887364Y-109775725D01*
X88873655Y-109774141D01*
X88833577Y-109766392D01*
X88798413Y-109753012D01*
X88768080Y-109733921D01*
X88742496Y-109709044D01*
X88721579Y-109678301D01*
X88705246Y-109641614D01*
X88694653Y-109604587D01*
X88693035Y-109597126D01*
X88691645Y-109589722D01*
X88690461Y-109581745D01*
X88689462Y-109572566D01*
X88688625Y-109561555D01*
X88687931Y-109548082D01*
X88687356Y-109531518D01*
X88686879Y-109511232D01*
X88686478Y-109486596D01*
X88686132Y-109456980D01*
X88685819Y-109421753D01*
X88685518Y-109380287D01*
X88685207Y-109331951D01*
X88685191Y-109329379D01*
X88683700Y-109089459D01*
X88636146Y-109088407D01*
X88588593Y-109087355D01*
X88580859Y-109074177D01*
X88577630Y-109067666D01*
X88575334Y-109059962D01*
X88573764Y-109049570D01*
X88572711Y-109034995D01*
X88571969Y-109014740D01*
X88571815Y-109008914D01*
X88571693Y-108977497D01*
X88573150Y-108952809D01*
X88576280Y-108934196D01*
X88581176Y-108921004D01*
X88585286Y-108915097D01*
X88588871Y-108912271D01*
X88594495Y-108910371D01*
X88603524Y-108909225D01*
X88617322Y-108908661D01*
X88637255Y-108908508D01*
X88637716Y-108908508D01*
X88684197Y-108908508D01*
X88684197Y-108816768D01*
X88684229Y-108788024D01*
X88684373Y-108765831D01*
X88684705Y-108749209D01*
X88685299Y-108737179D01*
X88686229Y-108728761D01*
X88687570Y-108722976D01*
X88689397Y-108718844D01*
X88691784Y-108715385D01*
X88691930Y-108715199D01*
X88699331Y-108708217D01*
X88709690Y-108703042D01*
X88724008Y-108699469D01*
X88743290Y-108697288D01*
X88768538Y-108696294D01*
X88783975Y-108696176D01*
X88812639Y-108696648D01*
G37*
G36*
X93277655Y-108527468D02*
G01*
X93299573Y-108529233D01*
X93316473Y-108532453D01*
X93329576Y-108537352D01*
X93339369Y-108543570D01*
X93349273Y-108551361D01*
X93349273Y-108775753D01*
X93349273Y-109000145D01*
X93376571Y-108973849D01*
X93412513Y-108942863D01*
X93448698Y-108919056D01*
X93485697Y-108902086D01*
X93507653Y-108895267D01*
X93528319Y-108891605D01*
X93553543Y-108889670D01*
X93580552Y-108889460D01*
X93606574Y-108890975D01*
X93628837Y-108894214D01*
X93633545Y-108895307D01*
X93672801Y-108908945D01*
X93707526Y-108928585D01*
X93737701Y-108954199D01*
X93763308Y-108985761D01*
X93784329Y-109023243D01*
X93800746Y-109066619D01*
X93812540Y-109115861D01*
X93819571Y-109169491D01*
X93820394Y-109183202D01*
X93821144Y-109203875D01*
X93821812Y-109230944D01*
X93822390Y-109263841D01*
X93822872Y-109301998D01*
X93823250Y-109344849D01*
X93823515Y-109391826D01*
X93823661Y-109442362D01*
X93823687Y-109476420D01*
X93823672Y-109527468D01*
X93823618Y-109571513D01*
X93823513Y-109609080D01*
X93823347Y-109640696D01*
X93823107Y-109666887D01*
X93822783Y-109688180D01*
X93822363Y-109705102D01*
X93821835Y-109718178D01*
X93821188Y-109727935D01*
X93820411Y-109734900D01*
X93819491Y-109739599D01*
X93818418Y-109742559D01*
X93817864Y-109743489D01*
X93809517Y-109751150D01*
X93796279Y-109756796D01*
X93777564Y-109760534D01*
X93752788Y-109762470D01*
X93721365Y-109762710D01*
X93713125Y-109762536D01*
X93688829Y-109761728D01*
X93670673Y-109760531D01*
X93657268Y-109758653D01*
X93647223Y-109755800D01*
X93639149Y-109751681D01*
X93631656Y-109746004D01*
X93630721Y-109745196D01*
X93629406Y-109743670D01*
X93628277Y-109741193D01*
X93627321Y-109737219D01*
X93626524Y-109731203D01*
X93625871Y-109722598D01*
X93625348Y-109710859D01*
X93624941Y-109695439D01*
X93624635Y-109675793D01*
X93624417Y-109651374D01*
X93624272Y-109621636D01*
X93624185Y-109586033D01*
X93624143Y-109544020D01*
X93624132Y-109495050D01*
X93624132Y-109492372D01*
X93624070Y-109442033D01*
X93623887Y-109395272D01*
X93623592Y-109352612D01*
X93623191Y-109314573D01*
X93622692Y-109281678D01*
X93622102Y-109254448D01*
X93621429Y-109233405D01*
X93620679Y-109219071D01*
X93620217Y-109214072D01*
X93613132Y-109177203D01*
X93601936Y-109146235D01*
X93586762Y-109121320D01*
X93567739Y-109102609D01*
X93544999Y-109090254D01*
X93518672Y-109084406D01*
X93507742Y-109083922D01*
X93490047Y-109084848D01*
X93475372Y-109088281D01*
X93460696Y-109094549D01*
X93440586Y-109106877D01*
X93418577Y-109124720D01*
X93396051Y-109146817D01*
X93374388Y-109171903D01*
X93370222Y-109177245D01*
X93349273Y-109204595D01*
X93349273Y-109471949D01*
X93349273Y-109739303D01*
X93340801Y-109747260D01*
X93331786Y-109753085D01*
X93319506Y-109758010D01*
X93315386Y-109759120D01*
X93302012Y-109761063D01*
X93283378Y-109762274D01*
X93261552Y-109762775D01*
X93238600Y-109762588D01*
X93216588Y-109761736D01*
X93197585Y-109760241D01*
X93183657Y-109758125D01*
X93181878Y-109757688D01*
X93169564Y-109753115D01*
X93159530Y-109747206D01*
X93156429Y-109744304D01*
X93155534Y-109742955D01*
X93154723Y-109740990D01*
X93153992Y-109738058D01*
X93153338Y-109733808D01*
X93152757Y-109727890D01*
X93152246Y-109719954D01*
X93151801Y-109709649D01*
X93151420Y-109696625D01*
X93151098Y-109680531D01*
X93150832Y-109661017D01*
X93150620Y-109637732D01*
X93150457Y-109610325D01*
X93150340Y-109578447D01*
X93150266Y-109541746D01*
X93150231Y-109499873D01*
X93150233Y-109452477D01*
X93150267Y-109399207D01*
X93150330Y-109339713D01*
X93150419Y-109273644D01*
X93150531Y-109200650D01*
X93150624Y-109143040D01*
X93151600Y-108550149D01*
X93160428Y-108543000D01*
X93170956Y-108536500D01*
X93184776Y-108531844D01*
X93202991Y-108528834D01*
X93226702Y-108527272D01*
X93249495Y-108526929D01*
X93277655Y-108527468D01*
G37*
G36*
X94386010Y-108891527D02*
G01*
X94429053Y-108898205D01*
X94467729Y-108909704D01*
X94502999Y-108926369D01*
X94535824Y-108948539D01*
X94558142Y-108967781D01*
X94587341Y-108999205D01*
X94611613Y-109034124D01*
X94631125Y-109073028D01*
X94646047Y-109116409D01*
X94656548Y-109164757D01*
X94662798Y-109218563D01*
X94664963Y-109277497D01*
X94664978Y-109301753D01*
X94664735Y-109319780D01*
X94664112Y-109332878D01*
X94662989Y-109342346D01*
X94661243Y-109349485D01*
X94658753Y-109355594D01*
X94657420Y-109358235D01*
X94649995Y-109369572D01*
X94641307Y-109379144D01*
X94639261Y-109380826D01*
X94636937Y-109382433D01*
X94634211Y-109383804D01*
X94630496Y-109384962D01*
X94625205Y-109385927D01*
X94617751Y-109386722D01*
X94607546Y-109387369D01*
X94594003Y-109387889D01*
X94576536Y-109388303D01*
X94554558Y-109388635D01*
X94527480Y-109388906D01*
X94494716Y-109389136D01*
X94455679Y-109389349D01*
X94409782Y-109389566D01*
X94402720Y-109389598D01*
X94176548Y-109390626D01*
X94179020Y-109420279D01*
X94185108Y-109463864D01*
X94195668Y-109501465D01*
X94210815Y-109533241D01*
X94230664Y-109559349D01*
X94255330Y-109579946D01*
X94284926Y-109595189D01*
X94312188Y-109603626D01*
X94325639Y-109606223D01*
X94340380Y-109607757D01*
X94358229Y-109608319D01*
X94381004Y-109607999D01*
X94392232Y-109607632D01*
X94422122Y-109606000D01*
X94448468Y-109603158D01*
X94473401Y-109598652D01*
X94499054Y-109592029D01*
X94527559Y-109582835D01*
X94554381Y-109573125D01*
X94576604Y-109565029D01*
X94593024Y-109559746D01*
X94604780Y-109557167D01*
X94613009Y-109557182D01*
X94618849Y-109559680D01*
X94623436Y-109564551D01*
X94624646Y-109566317D01*
X94627300Y-109571435D01*
X94629162Y-109578211D01*
X94630361Y-109587958D01*
X94631028Y-109601989D01*
X94631297Y-109621617D01*
X94631322Y-109633149D01*
X94631033Y-109659880D01*
X94629873Y-109680287D01*
X94627402Y-109695565D01*
X94623180Y-109706908D01*
X94616766Y-109715510D01*
X94607721Y-109722567D01*
X94595963Y-109729091D01*
X94570924Y-109739961D01*
X94539934Y-109750538D01*
X94504570Y-109760330D01*
X94474453Y-109767209D01*
X94451115Y-109770993D01*
X94422669Y-109773933D01*
X94391091Y-109775975D01*
X94358359Y-109777063D01*
X94326451Y-109777141D01*
X94297342Y-109776154D01*
X94273010Y-109774047D01*
X94266098Y-109773052D01*
X94216423Y-109762109D01*
X94172199Y-109746364D01*
X94132856Y-109725540D01*
X94097822Y-109699355D01*
X94079300Y-109681654D01*
X94052000Y-109649011D01*
X94029190Y-109612341D01*
X94010584Y-109570989D01*
X93995896Y-109524297D01*
X93984840Y-109471612D01*
X93983162Y-109461106D01*
X93980268Y-109436165D01*
X93978188Y-109405913D01*
X93976940Y-109372383D01*
X93976539Y-109337611D01*
X93977001Y-109303631D01*
X93978344Y-109272475D01*
X93980480Y-109247375D01*
X94176876Y-109247375D01*
X94324089Y-109247375D01*
X94471301Y-109247375D01*
X94471301Y-109217856D01*
X94468599Y-109180306D01*
X94460730Y-109146070D01*
X94448051Y-109115865D01*
X94430916Y-109090405D01*
X94409682Y-109070406D01*
X94392836Y-109060169D01*
X94382578Y-109055463D01*
X94373416Y-109052419D01*
X94363220Y-109050681D01*
X94349861Y-109049894D01*
X94331211Y-109049703D01*
X94330106Y-109049703D01*
X94311310Y-109049857D01*
X94297978Y-109050555D01*
X94288047Y-109052154D01*
X94279455Y-109055010D01*
X94270137Y-109059477D01*
X94268523Y-109060322D01*
X94242893Y-109078033D01*
X94221194Y-109101942D01*
X94203606Y-109131717D01*
X94190311Y-109167028D01*
X94181490Y-109207542D01*
X94179390Y-109223843D01*
X94176876Y-109247375D01*
X93980480Y-109247375D01*
X93980582Y-109246179D01*
X93981388Y-109239845D01*
X93992824Y-109178766D01*
X94009294Y-109123253D01*
X94030824Y-109073248D01*
X94057439Y-109028696D01*
X94089165Y-108989540D01*
X94094781Y-108983706D01*
X94129003Y-108953031D01*
X94165195Y-108928735D01*
X94204120Y-108910519D01*
X94246544Y-108898087D01*
X94293233Y-108891141D01*
X94337637Y-108889330D01*
X94386010Y-108891527D01*
G37*
G36*
X90337650Y-108890298D02*
G01*
X90384230Y-108895339D01*
X90424855Y-108903982D01*
X90460342Y-108916539D01*
X90491510Y-108933323D01*
X90519178Y-108954644D01*
X90527677Y-108962726D01*
X90547003Y-108984170D01*
X90562319Y-109006497D01*
X90574712Y-109031686D01*
X90585269Y-109061716D01*
X90588772Y-109073883D01*
X90598692Y-109109946D01*
X90598745Y-109427697D01*
X90598799Y-109745447D01*
X90588169Y-109753386D01*
X90582533Y-109756884D01*
X90575621Y-109759300D01*
X90565851Y-109760899D01*
X90551642Y-109761944D01*
X90532460Y-109762667D01*
X90503769Y-109763074D01*
X90481661Y-109762296D01*
X90465268Y-109760222D01*
X90453718Y-109756742D01*
X90446142Y-109751745D01*
X90446037Y-109751640D01*
X90442547Y-109747049D01*
X90440369Y-109740625D01*
X90439216Y-109730669D01*
X90438802Y-109715485D01*
X90438778Y-109708612D01*
X90438686Y-109693242D01*
X90438439Y-109681181D01*
X90438080Y-109674066D01*
X90437837Y-109672848D01*
X90434880Y-109675258D01*
X90427704Y-109681728D01*
X90417546Y-109691133D01*
X90410758Y-109697505D01*
X90374671Y-109727196D01*
X90336290Y-109750592D01*
X90301348Y-109765488D01*
X90286935Y-109770050D01*
X90273738Y-109773157D01*
X90259499Y-109775135D01*
X90241955Y-109776313D01*
X90222279Y-109776941D01*
X90189283Y-109776894D01*
X90163202Y-109775026D01*
X90148858Y-109772625D01*
X90106303Y-109759810D01*
X90068854Y-109741548D01*
X90036628Y-109717939D01*
X90009739Y-109689086D01*
X89988305Y-109655091D01*
X89973235Y-109618542D01*
X89967386Y-109594659D01*
X89963300Y-109565871D01*
X89961088Y-109534620D01*
X89960877Y-109505323D01*
X90155011Y-109505323D01*
X90155783Y-109531348D01*
X90161384Y-109556185D01*
X90171853Y-109578062D01*
X90177920Y-109586184D01*
X90193405Y-109601454D01*
X90210089Y-109611587D01*
X90229673Y-109617227D01*
X90253858Y-109619020D01*
X90264104Y-109618844D01*
X90282795Y-109617555D01*
X90297395Y-109614717D01*
X90311301Y-109609565D01*
X90316817Y-109606985D01*
X90334686Y-109596002D01*
X90355679Y-109579044D01*
X90371946Y-109563828D01*
X90404891Y-109531458D01*
X90404891Y-109462838D01*
X90404891Y-109394218D01*
X90346862Y-109394218D01*
X90306056Y-109395216D01*
X90271709Y-109398355D01*
X90242998Y-109403852D01*
X90219101Y-109411923D01*
X90199195Y-109422785D01*
X90182459Y-109436654D01*
X90181266Y-109437866D01*
X90167792Y-109456808D01*
X90159027Y-109479886D01*
X90155011Y-109505323D01*
X89960877Y-109505323D01*
X89960863Y-109503349D01*
X89962737Y-109474499D01*
X89965741Y-109455182D01*
X89977748Y-109415808D01*
X89996118Y-109380305D01*
X90020625Y-109348896D01*
X90051040Y-109321808D01*
X90087138Y-109299266D01*
X90128691Y-109281496D01*
X90145948Y-109276018D01*
X90176721Y-109268219D01*
X90209902Y-109262102D01*
X90246789Y-109257499D01*
X90288685Y-109254245D01*
X90330932Y-109252358D01*
X90405697Y-109249928D01*
X90403937Y-109196880D01*
X90402541Y-109168856D01*
X90400186Y-109146883D01*
X90396487Y-109129506D01*
X90391056Y-109115268D01*
X90383507Y-109102712D01*
X90376612Y-109093976D01*
X90362220Y-109080376D01*
X90345011Y-109070595D01*
X90323707Y-109064164D01*
X90297032Y-109060614D01*
X90283608Y-109059858D01*
X90263480Y-109059622D01*
X90242901Y-109060288D01*
X90225020Y-109061716D01*
X90217717Y-109062735D01*
X90194930Y-109068195D01*
X90167953Y-109077080D01*
X90138827Y-109088587D01*
X90109592Y-109101910D01*
X90082967Y-109115861D01*
X90062853Y-109126814D01*
X90047797Y-109133752D01*
X90036621Y-109136878D01*
X90028145Y-109136394D01*
X90021188Y-109132502D01*
X90016128Y-109127313D01*
X90006978Y-109111122D01*
X90001148Y-109088336D01*
X89998672Y-109059132D01*
X89998894Y-109036330D01*
X89999843Y-109018538D01*
X90001311Y-109006133D01*
X90003785Y-108996971D01*
X90007752Y-108988909D01*
X90010747Y-108984167D01*
X90024595Y-108968675D01*
X90045197Y-108953331D01*
X90071780Y-108938528D01*
X90103573Y-108924661D01*
X90139804Y-108912124D01*
X90166821Y-108904498D01*
X90224037Y-108893460D01*
X90284642Y-108888984D01*
X90337650Y-108890298D01*
G37*
G36*
X96020646Y-108903563D02*
G01*
X96042367Y-108904654D01*
X96060758Y-108906139D01*
X96073306Y-108907655D01*
X96081685Y-108909647D01*
X96087571Y-108912562D01*
X96092639Y-108916846D01*
X96094252Y-108918466D01*
X96096527Y-108921401D01*
X96099190Y-108926148D01*
X96102399Y-108933178D01*
X96106311Y-108942960D01*
X96111086Y-108955962D01*
X96116882Y-108972656D01*
X96123857Y-108993509D01*
X96132170Y-109018993D01*
X96141978Y-109049575D01*
X96153441Y-109085727D01*
X96166716Y-109127916D01*
X96181963Y-109176613D01*
X96189951Y-109202193D01*
X96206186Y-109254216D01*
X96220320Y-109299511D01*
X96232501Y-109338538D01*
X96242875Y-109371757D01*
X96251590Y-109399627D01*
X96258793Y-109422608D01*
X96264630Y-109441158D01*
X96269250Y-109455739D01*
X96272800Y-109466809D01*
X96275425Y-109474827D01*
X96277275Y-109480254D01*
X96278495Y-109483549D01*
X96279233Y-109485172D01*
X96279635Y-109485581D01*
X96279851Y-109485238D01*
X96280025Y-109484600D01*
X96280240Y-109484180D01*
X96281465Y-109480404D01*
X96284551Y-109469940D01*
X96289337Y-109453353D01*
X96295663Y-109431209D01*
X96303369Y-109404074D01*
X96312295Y-109372514D01*
X96322279Y-109337095D01*
X96333162Y-109298381D01*
X96344784Y-109256940D01*
X96356984Y-109213337D01*
X96357468Y-109211606D01*
X96369796Y-109167588D01*
X96381649Y-109125459D01*
X96392854Y-109085816D01*
X96403241Y-109049255D01*
X96412638Y-109016375D01*
X96420874Y-108987770D01*
X96427779Y-108964039D01*
X96433180Y-108945778D01*
X96436908Y-108933583D01*
X96438783Y-108928067D01*
X96443841Y-108919550D01*
X96451048Y-108913221D01*
X96461453Y-108908784D01*
X96476109Y-108905947D01*
X96496068Y-108904412D01*
X96522381Y-108903887D01*
X96525068Y-108903879D01*
X96554264Y-108904318D01*
X96577028Y-108905888D01*
X96594400Y-108908784D01*
X96607420Y-108913205D01*
X96617128Y-108919345D01*
X96619777Y-108921777D01*
X96622614Y-108924737D01*
X96624993Y-108927836D01*
X96626812Y-108931495D01*
X96627967Y-108936134D01*
X96628357Y-108942174D01*
X96627878Y-108950037D01*
X96626427Y-108960142D01*
X96623902Y-108972912D01*
X96620200Y-108988767D01*
X96615218Y-109008127D01*
X96608853Y-109031414D01*
X96601004Y-109059050D01*
X96591566Y-109091453D01*
X96580438Y-109129047D01*
X96567516Y-109172251D01*
X96552698Y-109221486D01*
X96535881Y-109277174D01*
X96521061Y-109326182D01*
X96494879Y-109412738D01*
X96470788Y-109492353D01*
X96448707Y-109565298D01*
X96428552Y-109631840D01*
X96410243Y-109692250D01*
X96393696Y-109746797D01*
X96378830Y-109795749D01*
X96365562Y-109839378D01*
X96353809Y-109877951D01*
X96343490Y-109911738D01*
X96334522Y-109941008D01*
X96326823Y-109966031D01*
X96320311Y-109987076D01*
X96314902Y-110004412D01*
X96310517Y-110018309D01*
X96307070Y-110029035D01*
X96304482Y-110036861D01*
X96302668Y-110042056D01*
X96301548Y-110044888D01*
X96301360Y-110045270D01*
X96291193Y-110056792D01*
X96274478Y-110066318D01*
X96252040Y-110073391D01*
X96249533Y-110073942D01*
X96235288Y-110076055D01*
X96216286Y-110077626D01*
X96194524Y-110078624D01*
X96171998Y-110079017D01*
X96150705Y-110078775D01*
X96132642Y-110077867D01*
X96119806Y-110076261D01*
X96118573Y-110075987D01*
X96101092Y-110069388D01*
X96089398Y-110059790D01*
X96084079Y-110047883D01*
X96084962Y-110036628D01*
X96086718Y-110031351D01*
X96090689Y-110019817D01*
X96096583Y-110002867D01*
X96104103Y-109981343D01*
X96112956Y-109956087D01*
X96122848Y-109927941D01*
X96133485Y-109897748D01*
X96134005Y-109896273D01*
X96144567Y-109866241D01*
X96154293Y-109838417D01*
X96162905Y-109813605D01*
X96170128Y-109792609D01*
X96175685Y-109776235D01*
X96179298Y-109765287D01*
X96180692Y-109760570D01*
X96180699Y-109760489D01*
X96178202Y-109755958D01*
X96171968Y-109748804D01*
X96169519Y-109746375D01*
X96167511Y-109744001D01*
X96165177Y-109740240D01*
X96162376Y-109734695D01*
X96158969Y-109726968D01*
X96154817Y-109716663D01*
X96149780Y-109703383D01*
X96143718Y-109686730D01*
X96136491Y-109666309D01*
X96127961Y-109641722D01*
X96117987Y-109612573D01*
X96106431Y-109578463D01*
X96093151Y-109538998D01*
X96078009Y-109493779D01*
X96060865Y-109442410D01*
X96041579Y-109384493D01*
X96030527Y-109351266D01*
X96013252Y-109299259D01*
X95996631Y-109249124D01*
X95980822Y-109201342D01*
X95965981Y-109156390D01*
X95952266Y-109114747D01*
X95939833Y-109076890D01*
X95928840Y-109043299D01*
X95919442Y-109014452D01*
X95911797Y-108990828D01*
X95906062Y-108972903D01*
X95902394Y-108961158D01*
X95900949Y-108956071D01*
X95900945Y-108956046D01*
X95901014Y-108939142D01*
X95906421Y-108924681D01*
X95916388Y-108914607D01*
X95917899Y-108913761D01*
X95929761Y-108909810D01*
X95947544Y-108906700D01*
X95969669Y-108904545D01*
X95994562Y-108903461D01*
X96020646Y-108903563D01*
G37*
G36*
X91256041Y-108892658D02*
G01*
X91295618Y-108902528D01*
X91331168Y-108918733D01*
X91362608Y-108941222D01*
X91389852Y-108969945D01*
X91412813Y-109004852D01*
X91414293Y-109007592D01*
X91426255Y-109030034D01*
X91449946Y-109003818D01*
X91485256Y-108968521D01*
X91521879Y-108939129D01*
X91559095Y-108916144D01*
X91596183Y-108900072D01*
X91600340Y-108898711D01*
X91618345Y-108893663D01*
X91635044Y-108890717D01*
X91653753Y-108889412D01*
X91668524Y-108889226D01*
X91712663Y-108892329D01*
X91752505Y-108901550D01*
X91788082Y-108916918D01*
X91819428Y-108938465D01*
X91846574Y-108966220D01*
X91869553Y-109000214D01*
X91888399Y-109040478D01*
X91903142Y-109087042D01*
X91909563Y-109115594D01*
X91910748Y-109122385D01*
X91911788Y-109130273D01*
X91912697Y-109139794D01*
X91913488Y-109151487D01*
X91914174Y-109165891D01*
X91914767Y-109183543D01*
X91915282Y-109204983D01*
X91915730Y-109230747D01*
X91916125Y-109261375D01*
X91916481Y-109297404D01*
X91916809Y-109339373D01*
X91917122Y-109387821D01*
X91917421Y-109440624D01*
X91917701Y-109495031D01*
X91917912Y-109542405D01*
X91918048Y-109583245D01*
X91918100Y-109618046D01*
X91918062Y-109647308D01*
X91917926Y-109671527D01*
X91917687Y-109691201D01*
X91917335Y-109706828D01*
X91916866Y-109718905D01*
X91916270Y-109727929D01*
X91915542Y-109734398D01*
X91914674Y-109738809D01*
X91913658Y-109741661D01*
X91913111Y-109742631D01*
X91904452Y-109750699D01*
X91890155Y-109756681D01*
X91869760Y-109760678D01*
X91842808Y-109762793D01*
X91820106Y-109763207D01*
X91789378Y-109762604D01*
X91765360Y-109760709D01*
X91747322Y-109757394D01*
X91734536Y-109752533D01*
X91727117Y-109746947D01*
X91725625Y-109745232D01*
X91724334Y-109743133D01*
X91723225Y-109740120D01*
X91722283Y-109735663D01*
X91721489Y-109729233D01*
X91720826Y-109720298D01*
X91720277Y-109708328D01*
X91719825Y-109692794D01*
X91719451Y-109673164D01*
X91719139Y-109648910D01*
X91718872Y-109619499D01*
X91718631Y-109584404D01*
X91718400Y-109543092D01*
X91718162Y-109495034D01*
X91718040Y-109469479D01*
X91717777Y-109417298D01*
X91717512Y-109372097D01*
X91717229Y-109333325D01*
X91716913Y-109300432D01*
X91716550Y-109272868D01*
X91716126Y-109250081D01*
X91715626Y-109231521D01*
X91715035Y-109216639D01*
X91714339Y-109204883D01*
X91713523Y-109195702D01*
X91712572Y-109188547D01*
X91711473Y-109182866D01*
X91710340Y-109178546D01*
X91698356Y-109146258D01*
X91683418Y-109120832D01*
X91665401Y-109102150D01*
X91644179Y-109090095D01*
X91619629Y-109084548D01*
X91609753Y-109084122D01*
X91587968Y-109086510D01*
X91566645Y-109093953D01*
X91545131Y-109106893D01*
X91522774Y-109125773D01*
X91498921Y-109151034D01*
X91483569Y-109169499D01*
X91459146Y-109200024D01*
X91459146Y-109464427D01*
X91459092Y-109518858D01*
X91458932Y-109567975D01*
X91458671Y-109611493D01*
X91458312Y-109649124D01*
X91457860Y-109680584D01*
X91457318Y-109705584D01*
X91456690Y-109723839D01*
X91455980Y-109735062D01*
X91455404Y-109738670D01*
X91450721Y-109746439D01*
X91442743Y-109752368D01*
X91430571Y-109756706D01*
X91413307Y-109759706D01*
X91390052Y-109761618D01*
X91370372Y-109762424D01*
X91337349Y-109762725D01*
X91311117Y-109761378D01*
X91291104Y-109758296D01*
X91276734Y-109753394D01*
X91267834Y-109747023D01*
X91266333Y-109745299D01*
X91265033Y-109743197D01*
X91263918Y-109740184D01*
X91262970Y-109735729D01*
X91262170Y-109729299D01*
X91261502Y-109720362D01*
X91260946Y-109708385D01*
X91260486Y-109692837D01*
X91260103Y-109673185D01*
X91259780Y-109648897D01*
X91259498Y-109619440D01*
X91259241Y-109584284D01*
X91258990Y-109542894D01*
X91258727Y-109494739D01*
X91258604Y-109471385D01*
X91258314Y-109419197D01*
X91258020Y-109373986D01*
X91257709Y-109335197D01*
X91257365Y-109302276D01*
X91256975Y-109274670D01*
X91256522Y-109251825D01*
X91255993Y-109233187D01*
X91255373Y-109218202D01*
X91254647Y-109206315D01*
X91253801Y-109196974D01*
X91252819Y-109189623D01*
X91251687Y-109183710D01*
X91250891Y-109180471D01*
X91239731Y-109148333D01*
X91225123Y-109122783D01*
X91206919Y-109103640D01*
X91184972Y-109090725D01*
X91174890Y-109087198D01*
X91152274Y-109083338D01*
X91130019Y-109085278D01*
X91107652Y-109093278D01*
X91084699Y-109107596D01*
X91060686Y-109128491D01*
X91035140Y-109156222D01*
X91024127Y-109169609D01*
X90999792Y-109200024D01*
X90999792Y-109464427D01*
X90999738Y-109518858D01*
X90999578Y-109567975D01*
X90999317Y-109611493D01*
X90998959Y-109649124D01*
X90998506Y-109680584D01*
X90997964Y-109705584D01*
X90997336Y-109723839D01*
X90996626Y-109735062D01*
X90996051Y-109738670D01*
X90991702Y-109746225D01*
X90984534Y-109751986D01*
X90973629Y-109756187D01*
X90958071Y-109759064D01*
X90936945Y-109760851D01*
X90909335Y-109761783D01*
X90905662Y-109761847D01*
X90884099Y-109761941D01*
X90863973Y-109761570D01*
X90847055Y-109760801D01*
X90835115Y-109759699D01*
X90831899Y-109759126D01*
X90819911Y-109754915D01*
X90809864Y-109749154D01*
X90808366Y-109747897D01*
X90800237Y-109740323D01*
X90800237Y-109332529D01*
X90800240Y-109268285D01*
X90800256Y-109211148D01*
X90800292Y-109160693D01*
X90800354Y-109116498D01*
X90800450Y-109078139D01*
X90800586Y-109045191D01*
X90800771Y-109017232D01*
X90801011Y-108993837D01*
X90801314Y-108974583D01*
X90801686Y-108959046D01*
X90802135Y-108946803D01*
X90802669Y-108937429D01*
X90803293Y-108930501D01*
X90804015Y-108925596D01*
X90804844Y-108922289D01*
X90805784Y-108920157D01*
X90806845Y-108918777D01*
X90807248Y-108918390D01*
X90815839Y-108912554D01*
X90827457Y-108908424D01*
X90843285Y-108905782D01*
X90864509Y-108904410D01*
X90884953Y-108904083D01*
X90914675Y-108905006D01*
X90937490Y-108908000D01*
X90953757Y-108913151D01*
X90963834Y-108920547D01*
X90966015Y-108923774D01*
X90967415Y-108930031D01*
X90968568Y-108942113D01*
X90969357Y-108958313D01*
X90969669Y-108976926D01*
X90969670Y-108978050D01*
X90969670Y-109025496D01*
X91006381Y-108988354D01*
X91039777Y-108956888D01*
X91071576Y-108932029D01*
X91102754Y-108913307D01*
X91134289Y-108900253D01*
X91167157Y-108892396D01*
X91202333Y-108889266D01*
X91212525Y-108889172D01*
X91256041Y-108892658D01*
G37*
G36*
X93447071Y-103529097D02*
G01*
X93525258Y-103542661D01*
X93580535Y-103556254D01*
X93599036Y-103561556D01*
X93615194Y-103566599D01*
X93627458Y-103570872D01*
X93634279Y-103573861D01*
X93634832Y-103574242D01*
X93639785Y-103580613D01*
X93646615Y-103592476D01*
X93654606Y-103608255D01*
X93663044Y-103626371D01*
X93671212Y-103645248D01*
X93678396Y-103663308D01*
X93683880Y-103678974D01*
X93686380Y-103687912D01*
X93691778Y-103724952D01*
X93692156Y-103766066D01*
X93687750Y-103809936D01*
X93678797Y-103855246D01*
X93665534Y-103900678D01*
X93648197Y-103944914D01*
X93635455Y-103971261D01*
X93627808Y-103984936D01*
X93618529Y-104000119D01*
X93608547Y-104015458D01*
X93598790Y-104029605D01*
X93590187Y-104041207D01*
X93583667Y-104048916D01*
X93580334Y-104051407D01*
X93576393Y-104050431D01*
X93566963Y-104047826D01*
X93553783Y-104044075D01*
X93547919Y-104042382D01*
X93499708Y-104031740D01*
X93447398Y-104026285D01*
X93392305Y-104025969D01*
X93335747Y-104030749D01*
X93279041Y-104040578D01*
X93230147Y-104053343D01*
X93179096Y-104071388D01*
X93125950Y-104094761D01*
X93072701Y-104122462D01*
X93021340Y-104153492D01*
X92995345Y-104171102D01*
X92972696Y-104188461D01*
X92948011Y-104209708D01*
X92922731Y-104233406D01*
X92898291Y-104258115D01*
X92876131Y-104282399D01*
X92857688Y-104304818D01*
X92847692Y-104318736D01*
X92821734Y-104361731D01*
X92798708Y-104408052D01*
X92777706Y-104459570D01*
X92773303Y-104471688D01*
X92766834Y-104490058D01*
X92761473Y-104505704D01*
X92757640Y-104517363D01*
X92755757Y-104523767D01*
X92755657Y-104524597D01*
X92759511Y-104524524D01*
X92769390Y-104523682D01*
X92783842Y-104522209D01*
X92801416Y-104520246D01*
X92803301Y-104520026D01*
X92912451Y-104510623D01*
X93019718Y-104508084D01*
X93124874Y-104512366D01*
X93227688Y-104523424D01*
X93327933Y-104541214D01*
X93425378Y-104565691D01*
X93519795Y-104596811D01*
X93610955Y-104634528D01*
X93698629Y-104678800D01*
X93737953Y-104701490D01*
X93818777Y-104754420D01*
X93895708Y-104813628D01*
X93968591Y-104878856D01*
X94037271Y-104949843D01*
X94101593Y-105026332D01*
X94161401Y-105108062D01*
X94216540Y-105194775D01*
X94266855Y-105286212D01*
X94312191Y-105382112D01*
X94352391Y-105482218D01*
X94387302Y-105586271D01*
X94416767Y-105694010D01*
X94440632Y-105805177D01*
X94456111Y-105900118D01*
X94463625Y-105960907D01*
X94469718Y-106025154D01*
X94474319Y-106091151D01*
X94477354Y-106157191D01*
X94478752Y-106221566D01*
X94478440Y-106282569D01*
X94476345Y-106338492D01*
X94475372Y-106353824D01*
X94463241Y-106474928D01*
X94444053Y-106593411D01*
X94417834Y-106709215D01*
X94384608Y-106822283D01*
X94344400Y-106932559D01*
X94297232Y-107039985D01*
X94243131Y-107144505D01*
X94182120Y-107246061D01*
X94114223Y-107344597D01*
X94039465Y-107440056D01*
X93983708Y-107504304D01*
X93938558Y-107551945D01*
X93888313Y-107600848D01*
X93834809Y-107649338D01*
X93779887Y-107695743D01*
X93732691Y-107732881D01*
X93635845Y-107801645D01*
X93535382Y-107863849D01*
X93431537Y-107919406D01*
X93324541Y-107968229D01*
X93214628Y-108010230D01*
X93102031Y-108045322D01*
X92986982Y-108073418D01*
X92869714Y-108094430D01*
X92750461Y-108108272D01*
X92726133Y-108110191D01*
X92700205Y-108111615D01*
X92668581Y-108112622D01*
X92633087Y-108113216D01*
X92595545Y-108113399D01*
X92557779Y-108113174D01*
X92521614Y-108112545D01*
X92488873Y-108111513D01*
X92461380Y-108110082D01*
X92456922Y-108109766D01*
X92339755Y-108097320D01*
X92224217Y-108077653D01*
X92110617Y-108050945D01*
X91999261Y-108017372D01*
X91890456Y-107977113D01*
X91784508Y-107930346D01*
X91681726Y-107877248D01*
X91582415Y-107817996D01*
X91486884Y-107752770D01*
X91395438Y-107681746D01*
X91308385Y-107605102D01*
X91226032Y-107523017D01*
X91148686Y-107435667D01*
X91076653Y-107343230D01*
X91037876Y-107288018D01*
X90973480Y-107186254D01*
X90916232Y-107082177D01*
X90866105Y-106975704D01*
X90823069Y-106866751D01*
X90787097Y-106755236D01*
X90758159Y-106641075D01*
X90736227Y-106524185D01*
X90721273Y-106404483D01*
X90717099Y-106353824D01*
X90715581Y-106324384D01*
X90714653Y-106288996D01*
X90714595Y-106282686D01*
X91046430Y-106282686D01*
X91048190Y-106330412D01*
X91051696Y-106376685D01*
X91054474Y-106401541D01*
X91058251Y-106429121D01*
X91062111Y-106450213D01*
X91066741Y-106465836D01*
X91072831Y-106477007D01*
X91081072Y-106484745D01*
X91092152Y-106490069D01*
X91106760Y-106493995D01*
X91118648Y-106496312D01*
X91142841Y-106500121D01*
X91174031Y-106504075D01*
X91211688Y-106508122D01*
X91255280Y-106512206D01*
X91304278Y-106516273D01*
X91343940Y-106519258D01*
X91372226Y-106521515D01*
X91394556Y-106523751D01*
X91410491Y-106525913D01*
X91419597Y-106527944D01*
X91421597Y-106529072D01*
X91423505Y-106535054D01*
X91425541Y-106545804D01*
X91426750Y-106554721D01*
X91428916Y-106571182D01*
X91432241Y-106593410D01*
X91436445Y-106619782D01*
X91441249Y-106648672D01*
X91446374Y-106678458D01*
X91451539Y-106707513D01*
X91456465Y-106734216D01*
X91460873Y-106756940D01*
X91464483Y-106774062D01*
X91464583Y-106774502D01*
X91469000Y-106792576D01*
X91473626Y-106809299D01*
X91477816Y-106822442D01*
X91480148Y-106828325D01*
X91491048Y-106843117D01*
X91508526Y-106856352D01*
X91531716Y-106867608D01*
X91559752Y-106876461D01*
X91591049Y-106882395D01*
X91608303Y-106883907D01*
X91631280Y-106884743D01*
X91658210Y-106884948D01*
X91687322Y-106884567D01*
X91716842Y-106883644D01*
X91745001Y-106882225D01*
X91770025Y-106880353D01*
X91790145Y-106878075D01*
X91795476Y-106877229D01*
X91819360Y-106872455D01*
X91836876Y-106867456D01*
X91849181Y-106861770D01*
X91857435Y-106854936D01*
X91860086Y-106851438D01*
X91865167Y-106840018D01*
X91870281Y-106821381D01*
X91875381Y-106795837D01*
X91880422Y-106763700D01*
X91885358Y-106725280D01*
X91890144Y-106680891D01*
X91894734Y-106630843D01*
X91897600Y-106595306D01*
X91899397Y-106572986D01*
X91901140Y-106553347D01*
X91902711Y-106537585D01*
X91903490Y-106531069D01*
X92759080Y-106531069D01*
X92759788Y-106580589D01*
X92766725Y-106629389D01*
X92779765Y-106676291D01*
X92798778Y-106720117D01*
X92809986Y-106739710D01*
X92836169Y-106774795D01*
X92868131Y-106805908D01*
X92904924Y-106832463D01*
X92945599Y-106853871D01*
X92989210Y-106869548D01*
X93034808Y-106878905D01*
X93034879Y-106878914D01*
X93063745Y-106880911D01*
X93096446Y-106880320D01*
X93129818Y-106877329D01*
X93160695Y-106872122D01*
X93164315Y-106871303D01*
X93211089Y-106856637D01*
X93254598Y-106835535D01*
X93294213Y-106808509D01*
X93329302Y-106776066D01*
X93359236Y-106738718D01*
X93383382Y-106696973D01*
X93385443Y-106692601D01*
X93401892Y-106648736D01*
X93411836Y-106603071D01*
X93415059Y-106557049D01*
X93411917Y-106515727D01*
X93401014Y-106464263D01*
X93384571Y-106417831D01*
X93362484Y-106376254D01*
X93334650Y-106339354D01*
X93300968Y-106306954D01*
X93282876Y-106293079D01*
X93242616Y-106268746D01*
X93198630Y-106250101D01*
X93152183Y-106237380D01*
X93104540Y-106230820D01*
X93056967Y-106230657D01*
X93010728Y-106237127D01*
X92998662Y-106240034D01*
X92949301Y-106256334D01*
X92905307Y-106277698D01*
X92866811Y-106304011D01*
X92833944Y-106335158D01*
X92806836Y-106371025D01*
X92785617Y-106411498D01*
X92776866Y-106434591D01*
X92764730Y-106482011D01*
X92759080Y-106531069D01*
X91903490Y-106531069D01*
X91903989Y-106526895D01*
X91904855Y-106522474D01*
X91904878Y-106522445D01*
X91909092Y-106521420D01*
X91919392Y-106519870D01*
X91934367Y-106517982D01*
X91952604Y-106515945D01*
X91958728Y-106515309D01*
X92012109Y-106509635D01*
X92060578Y-106504013D01*
X92103788Y-106498499D01*
X92141389Y-106493147D01*
X92173031Y-106488012D01*
X92198365Y-106483147D01*
X92217043Y-106478608D01*
X92228715Y-106474449D01*
X92231639Y-106472675D01*
X92237934Y-106464691D01*
X92243003Y-106451617D01*
X92246948Y-106432909D01*
X92249870Y-106408023D01*
X92251872Y-106376415D01*
X92252451Y-106361354D01*
X92252925Y-106317311D01*
X92251723Y-106270360D01*
X92248994Y-106223199D01*
X92244887Y-106178521D01*
X92240470Y-106144809D01*
X92239587Y-106139489D01*
X93527180Y-106139489D01*
X93527887Y-106189008D01*
X93534825Y-106237809D01*
X93547864Y-106284711D01*
X93566877Y-106328537D01*
X93578085Y-106348130D01*
X93604269Y-106383215D01*
X93636231Y-106414328D01*
X93673023Y-106440882D01*
X93713699Y-106462291D01*
X93757310Y-106477967D01*
X93802908Y-106487325D01*
X93802979Y-106487334D01*
X93831845Y-106489331D01*
X93864546Y-106488740D01*
X93897918Y-106485749D01*
X93928794Y-106480542D01*
X93932415Y-106479723D01*
X93979188Y-106465057D01*
X94022698Y-106443955D01*
X94062312Y-106416928D01*
X94097402Y-106384486D01*
X94127335Y-106347138D01*
X94151482Y-106305393D01*
X94153543Y-106301021D01*
X94169991Y-106257156D01*
X94179935Y-106211491D01*
X94183158Y-106165469D01*
X94180017Y-106124147D01*
X94169114Y-106072683D01*
X94152670Y-106026251D01*
X94130583Y-105984674D01*
X94102750Y-105947774D01*
X94069068Y-105915374D01*
X94050975Y-105901499D01*
X94010715Y-105877166D01*
X93966729Y-105858521D01*
X93920282Y-105845800D01*
X93872640Y-105839240D01*
X93825066Y-105839077D01*
X93778828Y-105845546D01*
X93766762Y-105848454D01*
X93717401Y-105864754D01*
X93673407Y-105886118D01*
X93634911Y-105912430D01*
X93602043Y-105943578D01*
X93574935Y-105979445D01*
X93553717Y-106019918D01*
X93544965Y-106043011D01*
X93532830Y-106090430D01*
X93527180Y-106139489D01*
X92239587Y-106139489D01*
X92236436Y-106120495D01*
X92232680Y-106102572D01*
X92228845Y-106089928D01*
X92224576Y-106081451D01*
X92219517Y-106076029D01*
X92218161Y-106075069D01*
X92207706Y-106070213D01*
X92191663Y-106065791D01*
X92169746Y-106061769D01*
X92141666Y-106058114D01*
X92107135Y-106054792D01*
X92065865Y-106051769D01*
X92017567Y-106049013D01*
X91977371Y-106047136D01*
X91953281Y-106046035D01*
X91931834Y-106044933D01*
X91914134Y-106043898D01*
X91901284Y-106042996D01*
X91894387Y-106042293D01*
X91893530Y-106042072D01*
X91892699Y-106038001D01*
X91891370Y-106027706D01*
X91889686Y-106012465D01*
X91887791Y-105993559D01*
X91886413Y-105978808D01*
X91882647Y-105939945D01*
X91878438Y-105901218D01*
X91873908Y-105863420D01*
X91869179Y-105827345D01*
X91864369Y-105793789D01*
X91859601Y-105763544D01*
X91854995Y-105737405D01*
X91850673Y-105716166D01*
X91846753Y-105700622D01*
X91843359Y-105691566D01*
X91842539Y-105690325D01*
X91831667Y-105681985D01*
X91814332Y-105674712D01*
X91791533Y-105668564D01*
X91764269Y-105663601D01*
X91733540Y-105659884D01*
X91700344Y-105657472D01*
X91665682Y-105656426D01*
X91630552Y-105656805D01*
X91595955Y-105658668D01*
X91562888Y-105662076D01*
X91532352Y-105667090D01*
X91516152Y-105670767D01*
X91488838Y-105679520D01*
X91468161Y-105690337D01*
X91453399Y-105703678D01*
X91445773Y-105715623D01*
X91440260Y-105728359D01*
X91435220Y-105743255D01*
X91430570Y-105760884D01*
X91426228Y-105781817D01*
X91422110Y-105806626D01*
X91418135Y-105835882D01*
X91414219Y-105870158D01*
X91410282Y-105910025D01*
X91406240Y-105956054D01*
X91402011Y-106008818D01*
X91400330Y-106030846D01*
X91399151Y-106044879D01*
X91397698Y-106053122D01*
X91395143Y-106057294D01*
X91390658Y-106059114D01*
X91386355Y-106059844D01*
X91378800Y-106060860D01*
X91365233Y-106062556D01*
X91347122Y-106064753D01*
X91325936Y-106067272D01*
X91306655Y-106069529D01*
X91254223Y-106075996D01*
X91207039Y-106082587D01*
X91165532Y-106089227D01*
X91130130Y-106095840D01*
X91101263Y-106102352D01*
X91079357Y-106108685D01*
X91073972Y-106110629D01*
X91066857Y-106114836D01*
X91061253Y-106121955D01*
X91056872Y-106132933D01*
X91053425Y-106148718D01*
X91050625Y-106170258D01*
X91048485Y-106194494D01*
X91046500Y-106236412D01*
X91046430Y-106282686D01*
X90714595Y-106282686D01*
X90714287Y-106249216D01*
X90714458Y-106206602D01*
X90715141Y-106162711D01*
X90716309Y-106119098D01*
X90717937Y-106077322D01*
X90719999Y-106038940D01*
X90722468Y-106005507D01*
X90722977Y-105999895D01*
X90737308Y-105878357D01*
X90757055Y-105761305D01*
X90782152Y-105648848D01*
X90812534Y-105541096D01*
X90848137Y-105438156D01*
X90888896Y-105340138D01*
X90934745Y-105247151D01*
X90985620Y-105159304D01*
X91041456Y-105076705D01*
X91102187Y-104999463D01*
X91167750Y-104927687D01*
X91238078Y-104861486D01*
X91313107Y-104800970D01*
X91392773Y-104746245D01*
X91477009Y-104697423D01*
X91509976Y-104680553D01*
X91589388Y-104644365D01*
X91670945Y-104613304D01*
X91755440Y-104587160D01*
X91843663Y-104565725D01*
X91936409Y-104548788D01*
X92034468Y-104536142D01*
X92069107Y-104532786D01*
X92090780Y-104531325D01*
X92118469Y-104530182D01*
X92150677Y-104529359D01*
X92185909Y-104528855D01*
X92222667Y-104528673D01*
X92259455Y-104528811D01*
X92294776Y-104529272D01*
X92327135Y-104530055D01*
X92355034Y-104531161D01*
X92376977Y-104532590D01*
X92377845Y-104532666D01*
X92394976Y-104534098D01*
X92409082Y-104535113D01*
X92418641Y-104535612D01*
X92422120Y-104535523D01*
X92423041Y-104531690D01*
X92425043Y-104521562D01*
X92427915Y-104506263D01*
X92431446Y-104486918D01*
X92435428Y-104464651D01*
X92436323Y-104459583D01*
X92450725Y-104384534D01*
X92466467Y-104315895D01*
X92483942Y-104252605D01*
X92503548Y-104193603D01*
X92525678Y-104137826D01*
X92550728Y-104084215D01*
X92579094Y-104031709D01*
X92611170Y-103979245D01*
X92620612Y-103964808D01*
X92664968Y-103902418D01*
X92713953Y-103842399D01*
X92765408Y-103786660D01*
X92814665Y-103738625D01*
X92862964Y-103696858D01*
X92911549Y-103660427D01*
X92961665Y-103628398D01*
X93014555Y-103599839D01*
X93014846Y-103599695D01*
X93083142Y-103569786D01*
X93152761Y-103547147D01*
X93223833Y-103531769D01*
X93296489Y-103523641D01*
X93370858Y-103522754D01*
X93447071Y-103529097D01*
G37*
D13*
%TO.C,A1*%
X98600000Y-90100000D02*
X98600000Y-88700000D01*
X98600000Y-87430000D02*
X98600000Y-69520000D01*
X98600000Y-69520000D02*
X83100000Y-69520000D01*
X97200000Y-90100000D02*
X98600000Y-90100000D01*
X95930000Y-90100000D02*
X95930000Y-87430000D01*
X95930000Y-87430000D02*
X98600000Y-87430000D01*
X95930000Y-87430000D02*
X95930000Y-69520000D01*
X85770000Y-90100000D02*
X85770000Y-69520000D01*
X83100000Y-90100000D02*
X95930000Y-90100000D01*
X83100000Y-69520000D02*
X83100000Y-90100000D01*
%TO.C,U5*%
X49510000Y-92140000D02*
X49510000Y-89540000D01*
X49160000Y-92140000D02*
X49510000Y-92140000D01*
X46840000Y-92140000D02*
X46500000Y-92140000D01*
X46500000Y-92140000D02*
X46500000Y-87050000D01*
X46500000Y-91640000D02*
G75*
G02*
X46498264Y-87440083I100000J2100000D01*
G01*
%TO.C,C4*%
X95620000Y-64750000D02*
G75*
G02*
X87380000Y-64750000I-4120000J0D01*
G01*
X87380000Y-64750000D02*
G75*
G02*
X95620000Y-64750000I4120000J0D01*
G01*
%TO.C,J4*%
X46620000Y-95540000D02*
X48000000Y-95540000D01*
X46620000Y-96920000D02*
X46620000Y-95540000D01*
X46620000Y-98190000D02*
X46620000Y-105920000D01*
X46620000Y-98190000D02*
X49380000Y-98190000D01*
X46620000Y-105920000D02*
X49380000Y-105920000D01*
X49380000Y-98190000D02*
X49380000Y-105920000D01*
%TO.C,J2*%
X102330000Y-101620000D02*
X110670000Y-101620000D01*
X102330000Y-101620000D02*
X102330000Y-91380000D01*
X104450000Y-101620000D02*
X104450000Y-91380000D01*
X109350000Y-101620000D02*
X109350000Y-91380000D01*
X109950000Y-101620000D02*
X109950000Y-91380000D01*
X110670000Y-101620000D02*
X110670000Y-99300000D01*
X102450000Y-100250000D02*
X103450000Y-100250000D01*
X102450000Y-100250000D02*
X102450000Y-97750000D01*
X103450000Y-100250000D02*
X103450000Y-97750000D01*
X110670000Y-98700000D02*
X110670000Y-91380000D01*
X102450000Y-97750000D02*
X103450000Y-97750000D01*
X102450000Y-95250000D02*
X103450000Y-95250000D01*
X102450000Y-95250000D02*
X102450000Y-92750000D01*
X103450000Y-95250000D02*
X103450000Y-92750000D01*
X102450000Y-92750000D02*
X103450000Y-92750000D01*
X102330000Y-91380000D02*
X110670000Y-91380000D01*
X111280000Y-99440000D02*
X110670000Y-99000000D01*
X111280000Y-98560000D01*
X111280000Y-99440000D01*
G36*
X111280000Y-99440000D02*
G01*
X110670000Y-99000000D01*
X111280000Y-98560000D01*
X111280000Y-99440000D01*
G37*
%TO.C,U2*%
X87500000Y-96735000D02*
X89700000Y-96735000D01*
X87500000Y-96735000D02*
X85300000Y-96735000D01*
X87500000Y-91265000D02*
X89700000Y-91265000D01*
X87500000Y-91265000D02*
X85300000Y-91265000D01*
X91690000Y-96515000D02*
X91360000Y-96275000D01*
X91690000Y-96035000D01*
X91690000Y-96515000D01*
G36*
X91690000Y-96515000D02*
G01*
X91360000Y-96275000D01*
X91690000Y-96035000D01*
X91690000Y-96515000D01*
G37*
%TO.C,J1*%
X102197500Y-113120000D02*
X110537500Y-113120000D01*
X102197500Y-113120000D02*
X102197500Y-102880000D01*
X104317500Y-113120000D02*
X104317500Y-102880000D01*
X109217500Y-113120000D02*
X109217500Y-102880000D01*
X109817500Y-113120000D02*
X109817500Y-102880000D01*
X110537500Y-113120000D02*
X110537500Y-110800000D01*
X102317500Y-111750000D02*
X103317500Y-111750000D01*
X102317500Y-111750000D02*
X102317500Y-109250000D01*
X103317500Y-111750000D02*
X103317500Y-109250000D01*
X110537500Y-110200000D02*
X110537500Y-102880000D01*
X102317500Y-109250000D02*
X103317500Y-109250000D01*
X102317500Y-106750000D02*
X103317500Y-106750000D01*
X102317500Y-106750000D02*
X102317500Y-104250000D01*
X103317500Y-106750000D02*
X103317500Y-104250000D01*
X102317500Y-104250000D02*
X103317500Y-104250000D01*
X102197500Y-102880000D02*
X110537500Y-102880000D01*
X111147500Y-110940000D02*
X110537500Y-110500000D01*
X111147500Y-110060000D01*
X111147500Y-110940000D01*
G36*
X111147500Y-110940000D02*
G01*
X110537500Y-110500000D01*
X111147500Y-110060000D01*
X111147500Y-110940000D01*
G37*
%TO.C,J3*%
X103880000Y-88620000D02*
X113120000Y-88620000D01*
X103880000Y-88620000D02*
X103880000Y-68380000D01*
X111500000Y-88620000D02*
X111500000Y-68380000D01*
X113120000Y-88620000D02*
X113120000Y-86300000D01*
X113120000Y-85700000D02*
X113120000Y-68380000D01*
X103880000Y-68380000D02*
X113120000Y-68380000D01*
X106900000Y-86000000D02*
G75*
G02*
X105100000Y-86000000I-900000J0D01*
G01*
X105100000Y-86000000D02*
G75*
G02*
X106900000Y-86000000I900000J0D01*
G01*
X106900000Y-81000000D02*
G75*
G02*
X105100000Y-81000000I-900000J0D01*
G01*
X105100000Y-81000000D02*
G75*
G02*
X106900000Y-81000000I900000J0D01*
G01*
X106900000Y-76000000D02*
G75*
G02*
X105100000Y-76000000I-900000J0D01*
G01*
X105100000Y-76000000D02*
G75*
G02*
X106900000Y-76000000I900000J0D01*
G01*
X106900000Y-71000000D02*
G75*
G02*
X105100000Y-71000000I-900000J0D01*
G01*
X105100000Y-71000000D02*
G75*
G02*
X106900000Y-71000000I900000J0D01*
G01*
X113730000Y-86440000D02*
X113120000Y-86000000D01*
X113730000Y-85560000D01*
X113730000Y-86440000D01*
G36*
X113730000Y-86440000D02*
G01*
X113120000Y-86000000D01*
X113730000Y-85560000D01*
X113730000Y-86440000D01*
G37*
%TO.C,J5*%
X47100000Y-70595000D02*
X45720000Y-70595000D01*
X47100000Y-69215000D02*
X47100000Y-70595000D01*
X47100000Y-67945000D02*
X47100000Y-60215000D01*
X47100000Y-67945000D02*
X44340000Y-67945000D01*
X47100000Y-60215000D02*
X44340000Y-60215000D01*
X44340000Y-67945000D02*
X44340000Y-60215000D01*
%TO.C,U3*%
D14*
X53102460Y-112632090D02*
X81402460Y-112632090D01*
X81402460Y-61132090D01*
X53102460Y-61132090D01*
X53102460Y-112632090D01*
D11*
X63262460Y-64372090D02*
X70882460Y-64372090D01*
X70882460Y-60117911D01*
X63262460Y-60117911D01*
X63262460Y-64372090D01*
%TD*%
%LPC*%
D15*
%TO.C,A1*%
X97200000Y-88700000D03*
D16*
X97200000Y-86160000D03*
X97200000Y-83620000D03*
X97200000Y-81080000D03*
X97200000Y-78540000D03*
X97200000Y-76000000D03*
X97200000Y-73460000D03*
X97200000Y-70920000D03*
X84500000Y-70920000D03*
X84500000Y-73460000D03*
X84500000Y-76000000D03*
X84500000Y-78540000D03*
X84500000Y-81080000D03*
X84500000Y-83620000D03*
X84500000Y-86160000D03*
X84500000Y-88700000D03*
%TD*%
D17*
%TO.C,U5*%
X48000000Y-87000000D03*
D18*
X48000000Y-89540000D03*
X48000000Y-92080000D03*
%TD*%
D19*
%TO.C,C2*%
X51435000Y-70780000D03*
X51435000Y-69220000D03*
%TD*%
D20*
%TO.C,R1*%
X84836000Y-103193000D03*
X84836000Y-104833000D03*
%TD*%
D21*
%TO.C,C5*%
X88720000Y-98500000D03*
X90280000Y-98500000D03*
%TD*%
D19*
%TO.C,C1*%
X48500000Y-70780000D03*
X48500000Y-69220000D03*
%TD*%
D22*
%TO.C,C4*%
X91500000Y-66500000D03*
X91500000Y-63000000D03*
%TD*%
D19*
%TO.C,C7*%
X84500000Y-99560000D03*
X84500000Y-98000000D03*
%TD*%
D23*
%TO.C,J4*%
X48000000Y-96920000D03*
D24*
X48000000Y-99460000D03*
X48000000Y-102000000D03*
X48000000Y-104540000D03*
%TD*%
D21*
%TO.C,C6*%
X88720000Y-100500000D03*
X90280000Y-100500000D03*
%TD*%
D25*
%TO.C,J2*%
X106500000Y-99000000D03*
D26*
X106500000Y-94000000D03*
%TD*%
D27*
%TO.C,U2*%
X90362500Y-96275000D03*
X90362500Y-95625000D03*
X90362500Y-94975000D03*
X90362500Y-94325000D03*
X90362500Y-93675000D03*
X90362500Y-93025000D03*
X90362500Y-92375000D03*
X90362500Y-91725000D03*
X84637500Y-91725000D03*
X84637500Y-92375000D03*
X84637500Y-93025000D03*
X84637500Y-93675000D03*
X84637500Y-94325000D03*
X84637500Y-94975000D03*
X84637500Y-95625000D03*
X84637500Y-96275000D03*
%TD*%
D25*
%TO.C,J1*%
X106367500Y-110500000D03*
D26*
X106367500Y-105500000D03*
%TD*%
D19*
%TO.C,C3*%
X82550000Y-104793000D03*
X82550000Y-103233000D03*
%TD*%
D28*
%TO.C,J3*%
X109000000Y-86000000D03*
D29*
X109000000Y-81000000D03*
X109000000Y-76000000D03*
X109000000Y-71000000D03*
%TD*%
D23*
%TO.C,J5*%
X45720000Y-69215000D03*
D24*
X45720000Y-66675000D03*
X45720000Y-64135000D03*
X45720000Y-61595000D03*
%TD*%
D30*
%TO.C,U3*%
X80000000Y-69212277D03*
X80000000Y-71752277D03*
X80000000Y-74292277D03*
X80000000Y-76832277D03*
X80000000Y-79372277D03*
X80000000Y-81912277D03*
X80000000Y-84452277D03*
X80000000Y-86992277D03*
X80000000Y-89532277D03*
X80000000Y-92072277D03*
X80000000Y-94612277D03*
X80000000Y-97152277D03*
X80000000Y-99692277D03*
X80000000Y-102232277D03*
X80000000Y-104772277D03*
X54600000Y-69212277D03*
X54600000Y-71752277D03*
X54600000Y-74292277D03*
X54600000Y-76832277D03*
X54600000Y-79372277D03*
X54600000Y-81912277D03*
X54600000Y-84452277D03*
X54600000Y-86992277D03*
X54600000Y-89532277D03*
X54600000Y-92072277D03*
X54600000Y-94612277D03*
X54600000Y-97152277D03*
X54600000Y-99692277D03*
X54600000Y-102232277D03*
X54600000Y-104772277D03*
%TD*%
%LPD*%
M02*
