M48
; DRILL file {KiCad 9.0.1} date 2026-01-18T13:59:08-0500
; FORMAT={-:-/ absolute / inch / decimal}
; #@! TF.CreationDate,2026-01-18T13:59:08-05:00
; #@! TF.GenerationSoftware,Kicad,Pcbnew,9.0.1
; #@! TF.FileFunction,Plated,1,2,PTH
FMAT,2
INCH
; #@! TA.AperFunction,Plated,PTH,ViaDrill
T1C0.0118
; #@! TA.AperFunction,Plated,PTH,ComponentDrill
T2C0.0315
; #@! TA.AperFunction,Plated,PTH,ComponentDrill
T3C0.0354
; #@! TA.AperFunction,Plated,PTH,ComponentDrill
T4C0.0394
; #@! TA.AperFunction,Plated,PTH,ComponentDrill
T5C0.0433
; #@! TA.AperFunction,Plated,PTH,ComponentDrill
T6C0.0512
%
G90
G05
T1
X3.325Y-3.99
X3.39Y-3.625
X3.405Y-3.655
X3.405Y-3.755
X3.405Y-3.785
X3.4055Y-3.9173
X3.41Y-3.725
X3.425Y-3.625
X3.435Y-3.755
X3.435Y-3.785
X3.465Y-3.785
X3.4843Y-3.6811
X3.6417Y-3.7411
X3.8386Y-3.563
T2
X2.1496Y-2.7249
X2.1496Y-2.8249
X2.1496Y-2.9249
X2.1496Y-3.0249
X2.1496Y-3.1249
X2.1496Y-3.2249
X2.1496Y-3.3249
X2.1496Y-3.4249
X2.1496Y-3.5249
X2.1496Y-3.6249
X2.1496Y-3.7249
X2.1496Y-3.8249
X2.1496Y-3.9249
X2.1496Y-4.0249
X2.1496Y-4.1249
X3.1496Y-2.7249
X3.1496Y-2.8249
X3.1496Y-2.9249
X3.1496Y-3.0249
X3.1496Y-3.1249
X3.1496Y-3.2249
X3.1496Y-3.3249
X3.1496Y-3.4249
X3.1496Y-3.5249
X3.1496Y-3.6249
X3.1496Y-3.7249
X3.1496Y-3.8249
X3.1496Y-3.9249
X3.1496Y-4.0249
X3.1496Y-4.1249
X3.3268Y-2.7921
X3.3268Y-2.8921
X3.3268Y-2.9921
X3.3268Y-3.0921
X3.3268Y-3.1921
X3.3268Y-3.2921
X3.3268Y-3.3921
X3.3268Y-3.4921
X3.6024Y-2.4803
X3.6024Y-2.6181
X3.8268Y-2.7921
X3.8268Y-2.8921
X3.8268Y-2.9921
X3.8268Y-3.0921
X3.8268Y-3.1921
X3.8268Y-3.2921
X3.8268Y-3.3921
X3.8268Y-3.4921
T3
X1.8898Y-3.4252
X1.8898Y-3.5252
X1.8898Y-3.6252
T4
X1.8Y-2.425
X1.8Y-2.525
X1.8Y-2.625
X1.8Y-2.725
X1.8898Y-3.8157
X1.8898Y-3.9157
X1.8898Y-4.0157
X1.8898Y-4.1157
T5
X4.1877Y-4.1535
X4.1877Y-4.3504
X4.1929Y-3.7008
X4.1929Y-3.8976
T6
X4.2913Y-2.7953
X4.2913Y-2.9921
X4.2913Y-3.189
X4.2913Y-3.3858
M30
