%TF.GenerationSoftware,KiCad,Pcbnew,9.0.1*%
%TF.CreationDate,2026-01-18T10:44:56-05:00*%
%TF.ProjectId,Power_Board,506f7765-725f-4426-9f61-72642e6b6963,rev?*%
%TF.SameCoordinates,Original*%
%TF.FileFunction,Soldermask,Top*%
%TF.FilePolarity,Negative*%
%FSLAX46Y46*%
G04 Gerber Fmt 4.6, Leading zero omitted, Abs format (unit mm)*
G04 Created by KiCad (PCBNEW 9.0.1) date 2026-01-18 10:44:56*
%MOMM*%
%LPD*%
G01*
G04 APERTURE LIST*
G04 Aperture macros list*
%AMRoundRect*
0 Rectangle with rounded corners*
0 $1 Rounding radius*
0 $2 $3 $4 $5 $6 $7 $8 $9 X,Y pos of 4 corners*
0 Add a 4 corners polygon primitive as box body*
4,1,4,$2,$3,$4,$5,$6,$7,$8,$9,$2,$3,0*
0 Add four circle primitives for the rounded corners*
1,1,$1+$1,$2,$3*
1,1,$1+$1,$4,$5*
1,1,$1+$1,$6,$7*
1,1,$1+$1,$8,$9*
0 Add four rect primitives between the rounded corners*
20,1,$1+$1,$2,$3,$4,$5,0*
20,1,$1+$1,$4,$5,$6,$7,0*
20,1,$1+$1,$6,$7,$8,$9,0*
20,1,$1+$1,$8,$9,$2,$3,0*%
G04 Aperture macros list end*
%ADD10RoundRect,0.269000X-0.494000X0.269000X-0.494000X-0.269000X0.494000X-0.269000X0.494000X0.269000X0*%
%ADD11RoundRect,0.475000X-0.475000X-2.075000X0.475000X-2.075000X0.475000X2.075000X-0.475000X2.075000X0*%
%ADD12RoundRect,0.244000X-0.269000X0.244000X-0.269000X-0.244000X0.269000X-0.244000X0.269000X0.244000X0*%
%ADD13RoundRect,0.244000X-0.244000X-0.269000X0.244000X-0.269000X0.244000X0.269000X-0.244000X0.269000X0*%
%ADD14RoundRect,0.219000X-0.294000X0.219000X-0.294000X-0.219000X0.294000X-0.219000X0.294000X0.219000X0*%
%ADD15R,0.299999X0.670001*%
%ADD16RoundRect,0.250001X-0.799999X0.799999X-0.799999X-0.799999X0.799999X-0.799999X0.799999X0.799999X0*%
%ADD17C,2.100000*%
%ADD18R,1.700000X1.700000*%
%ADD19C,1.700000*%
G04 APERTURE END LIST*
D10*
%TO.C,C7*%
X77450000Y-72850000D03*
X77450000Y-74750000D03*
%TD*%
D11*
%TO.C,L1*%
X70650000Y-68250000D03*
X74850000Y-68250000D03*
%TD*%
D12*
%TO.C,C2*%
X61468000Y-68067000D03*
X61468000Y-69627000D03*
%TD*%
D13*
%TO.C,C3*%
X67025000Y-67056000D03*
X68585000Y-67056000D03*
%TD*%
D14*
%TO.C,R7*%
X80322000Y-73035000D03*
X80322000Y-74675000D03*
%TD*%
%TO.C,R5*%
X82608000Y-68590000D03*
X82608000Y-70230000D03*
%TD*%
D10*
%TO.C,C4*%
X77550000Y-66700000D03*
X77550000Y-68600000D03*
%TD*%
D12*
%TO.C,C8*%
X79306000Y-76073000D03*
X79306000Y-77633000D03*
%TD*%
D13*
%TO.C,C6*%
X67051000Y-73152000D03*
X68611000Y-73152000D03*
%TD*%
D15*
%TO.C,U2*%
X65037998Y-72911998D03*
X64537999Y-72911998D03*
X64038000Y-72911998D03*
X64038000Y-74392000D03*
X64537999Y-74392000D03*
X65037998Y-74392000D03*
%TD*%
D14*
%TO.C,R4*%
X80576000Y-66876000D03*
X80576000Y-68516000D03*
%TD*%
D12*
%TO.C,C5*%
X79560000Y-69977000D03*
X79560000Y-71537000D03*
%TD*%
D14*
%TO.C,R8*%
X82100000Y-74750000D03*
X82100000Y-76390000D03*
%TD*%
D16*
%TO.C,J2*%
X52500000Y-68000000D03*
D17*
X52500000Y-73000000D03*
%TD*%
D11*
%TO.C,L2*%
X70650000Y-75000000D03*
X74850000Y-75000000D03*
%TD*%
D15*
%TO.C,U1*%
X64770000Y-66832000D03*
X64270001Y-66832000D03*
X63770002Y-66832000D03*
X63770002Y-68312002D03*
X64270001Y-68312002D03*
X64770000Y-68312002D03*
%TD*%
D12*
%TO.C,C1*%
X59366000Y-68080000D03*
X59366000Y-69640000D03*
%TD*%
D18*
%TO.C,J1*%
X86418000Y-74554000D03*
D19*
X86418000Y-72014000D03*
X86418000Y-69474000D03*
X86418000Y-66934000D03*
%TD*%
M02*
